<?xml version="1.0" encoding="utf-8"?>
<!-- Generator: Adobe Illustrator 21.1.0, SVG Export Plug-In . SVG Version: 6.00 Build 0)  -->
<svg version="1.1" id="bottom_x2F_9" xmlns="http://www.w3.org/2000/svg" xmlns:xlink="http://www.w3.org/1999/xlink" x="0px"
	 y="0px" viewBox="0 0 700 1200" style="enable-background:new 0 0 700 1200;" xml:space="preserve">
<style type="text/css">
	.st0{fill:none;}
	.st1{fill:#FFFFFF;stroke:#000000;stroke-width:3;stroke-miterlimit:10;}
	.st2{fill:#C889BB;stroke:#000000;stroke-width:3;stroke-linecap:square;stroke-linejoin:bevel;stroke-miterlimit:10;}
</style>
<g>
	<path class="st0" d="M366.8,949.2c-1.9-20.6-3.4-37-4.1-44.1c-0.3-2.8-2.8-4.9-5.6-4.6c-3.1,0.3-6.8,0.7-8.8,0.7
		c-3.8,0-5.1,8.9-5.1,22.8c0,2.8-0.6,12.1-1.4,25.2"/>
	<path class="st1" d="M413.4,840.3H287.5c0,0-2.9,55.5-5.6,108.9h59.9c0.9-13.1,1.4-22.4,1.4-25.2c0-13.9,1.3-22.8,5.1-22.8
		c2,0,5.7-0.3,8.8-0.7c2.8-0.3,5.3,1.7,5.6,4.6c0.7,7.1,2.2,23.6,4.1,44.1h55.8L413.4,840.3z"/>
	<path class="st2" d="M286.3,839.3c0,0-9.3,33.5-23.2,41.2c0,0-33.8,30.8,10.6,27.7c4.5-0.3,9.2-7.5,14.9-6.9
		c8,0.8,7.6,7.7,12.4,13.7c3.2,4.1,8.4,7.7,13.1,5.6c6.5-2.9,3.7-8.2,5.8-13.8c5.1-13.7,14.4-4,21.3,0.7c10.6,7.1,9-0.6,17.4-8.4
		c12.6-11.5,21.3,19.8,30,6.5c3.7-5.7,3.3-14.6,11.1-12.1c5.5,1.8,6.9,12.1,13.3,13.6c11.6,2.7,4.9-10.9,10.2-14.6
		c4.4-3.1,12.3,8.6,17.3,7.5c12.7-2.8,3.8-15.7-1.7-22.3c-9.4-11.3-19.8-22-25.2-38.2L286.3,839.3z"/>
</g>
</svg>
