<?xml version="1.0" encoding="utf-8"?>
<!-- Generator: Adobe Illustrator 21.1.0, SVG Export Plug-In . SVG Version: 6.00 Build 0)  -->
<svg version="1.1" id="bottom_x2F_1" xmlns="http://www.w3.org/2000/svg" xmlns:xlink="http://www.w3.org/1999/xlink" x="0px"
	 y="0px" viewBox="0 0 700 1200" style="enable-background:new 0 0 700 1200;" xml:space="preserve">
<style type="text/css">
	.st0{fill:#294B9A;stroke:#1D1D1B;stroke-width:3;stroke-linecap:round;stroke-linejoin:round;stroke-miterlimit:10;}
	.st1{fill:#6DB866;stroke:#1D1D1B;stroke-width:3;stroke-linecap:round;stroke-linejoin:round;stroke-miterlimit:10;}
	.st2{fill:#F2E500;stroke:#1D1D1B;stroke-width:3;stroke-linecap:round;stroke-linejoin:round;stroke-miterlimit:10;}
	.st3{fill:none;stroke:#1D1D1B;stroke-width:3;stroke-linecap:round;stroke-linejoin:round;stroke-miterlimit:10;}
	.st4{fill:#8099CE;stroke:#1D1D1B;stroke-width:3;stroke-linecap:round;stroke-linejoin:round;stroke-miterlimit:10;}
</style>
<g>
	<path class="st0" d="M275.6,850l-6.2,227.6c0,0,39,23.7,73.3,0V929c0,0,10,2.7,15.1,0.9l5.1,148c0,0,55.7,21.2,75.9-1.4L419.8,853
		L275.6,850z"/>
	<path class="st1" d="M274,840.1h146.4c0,0,11.9,9.1,0.5,27.5H275.1C275.1,867.5,264.6,855.1,274,840.1z"/>
	<path class="st2" d="M367.1,867.1c0,3-2.4,5.4-5.4,5.4h-26.4c-3,0-5.4-2.4-5.4-5.4v-27.4c0-3,2.4-5.4,5.4-5.4h26.4
		c3,0,5.4,2.4,5.4,5.4V867.1z"/>
	<path class="st1" d="M363.8,862.9c0,3.4-2.7,6.1-6.1,6.1h-17.8c-3.4,0-6.1-2.7-6.1-6.1v-18.7c0-3.4,2.7-6.1,6.1-6.1h17.8
		c3.4,0,6.1,2.7,6.1,6.1V862.9z"/>
	<path class="st2" d="M325.8,850c0,0,7.9,2.2,11,0v4.7c0,0-9,1.9-11-0.8V850z"/>
	<path class="st0" d="M300.4,838c0,0-5.6,24,0,33h4.9c0,0-7.2-14.1,0-33H300.4z"/>
	<path class="st0" d="M395.3,838h-5.3c0,0,11.2,20.7,0.9,33h4.4C395.3,871,407.1,859.9,395.3,838z"/>
	<path class="st3" d="M330,923.9c0,0,12.5,5.2,14.7,5.6v-55.7"/>
	<path class="st3" d="M363.8,925.7c0,0-4.1,5.2-9.8,4.8v-56.7"/>
	<path class="st4" d="M263.5,1067.6c-2.8,0.1-4.3,2.4-4,9.1c0,0-3.1,18.1,5.8,20.8c14.3,4.9,29.8,8,44.9,8.4
		c9.5,0.3,17.5-1.4,26.6-3.9c7.9-2.2,10.8-2,11.8-11.4c0.5-4.2,1.9-19.1-2.7-21.6c-2.5-1.4-8.5,2.3-11,2.9c-7,1.9-14.1,3.2-21.3,4
		c-9,0.9-18.2,0.9-27.1-0.8c-4.5-0.8-9.8-1.9-13.9-4.2C269,1069.1,265.8,1067.5,263.5,1067.6z"/>
	<path class="st4" d="M363.5,1068.9c-2.8,0.1-4.3,2.4-4,9.1c0,0-3.1,18.1,5.8,20.8c14.3,4.9,29.8,8,44.9,8.4
		c9.5,0.3,17.5-1.4,26.6-3.9c7.9-2.2,10.8-2,11.8-11.4c0.5-4.2,1.9-19.1-2.7-21.6c-2.5-1.4-8.5,2.3-11,2.9c-7,1.9-14.1,3.2-21.3,4
		c-9,0.9-18.2,0.9-27.1-0.8c-4.5-0.8-9.8-1.9-13.9-4.2C368.9,1070.4,365.8,1068.8,363.5,1068.9z"/>
	<line class="st3" x1="277.4" y1="843.8" x2="283.2" y2="843.8"/>
	<line class="st3" x1="288.2" y1="843.8" x2="293.9" y2="843.8"/>
	<line class="st3" x1="307.4" y1="843.8" x2="314.2" y2="843.8"/>
	<line class="st3" x1="319.2" y1="843.8" x2="325.8" y2="843.8"/>
	<line class="st3" x1="370.8" y1="843.8" x2="377.6" y2="843.8"/>
	<line class="st3" x1="382.3" y1="843.8" x2="388" y2="843.8"/>
	<line class="st3" x1="403.1" y1="843.8" x2="407.8" y2="843.8"/>
	<line class="st3" x1="412.1" y1="843.8" x2="417.7" y2="843.8"/>
	<line class="st3" x1="412.1" y1="862.8" x2="417.7" y2="862.8"/>
	<line class="st3" x1="404.2" y1="862.8" x2="407.8" y2="862.8"/>
	<line class="st3" x1="370.8" y1="862.8" x2="377.6" y2="862.8"/>
	<line class="st3" x1="382.3" y1="862.8" x2="388" y2="862.8"/>
	<line class="st3" x1="307.4" y1="862.8" x2="312.5" y2="862.8"/>
	<line class="st3" x1="319.2" y1="862.8" x2="324.6" y2="862.8"/>
	<line class="st3" x1="277.4" y1="862.8" x2="282.1" y2="862.8"/>
	<line class="st3" x1="286.9" y1="862.8" x2="292.3" y2="862.8"/>
</g>
</svg>
