<?xml version="1.0" encoding="utf-8"?>
<!-- Generator: Adobe Illustrator 21.1.0, SVG Export Plug-In . SVG Version: 6.00 Build 0)  -->
<svg version="1.1" id="bottom_x2F_2" xmlns="http://www.w3.org/2000/svg" xmlns:xlink="http://www.w3.org/1999/xlink" x="0px"
	 y="0px" viewBox="0 0 700 1200" style="enable-background:new 0 0 700 1200;" xml:space="preserve">
<style type="text/css">
	.st0{fill:#294B9A;stroke:#1D1D1B;stroke-width:3;stroke-linecap:round;stroke-linejoin:round;stroke-miterlimit:10;}
	.st1{fill:#E84480;stroke:#1D1D1B;stroke-width:3;stroke-linecap:round;stroke-linejoin:round;stroke-miterlimit:10;}
	.st2{fill:none;stroke:#1D1D1B;stroke-width:3;stroke-linecap:round;stroke-linejoin:round;stroke-miterlimit:10;}
	.st3{fill:#F2E500;stroke:#1D1D1B;stroke-width:3;stroke-linecap:round;stroke-linejoin:round;stroke-miterlimit:10;}
	.st4{fill:#E51E55;stroke:#1D1D1B;stroke-width:3;stroke-linecap:round;stroke-linejoin:round;stroke-miterlimit:10;}
	.st5{fill:#7A4694;stroke:#1D1D1B;stroke-width:3;stroke-linecap:round;stroke-linejoin:round;stroke-miterlimit:10;}
</style>
<g>
	<polygon class="st0" points="278.7,849 271.5,1089.1 344.8,1089.1 349.7,927.9 376.6,1090.5 441.2,1090.5 414.3,849 	"/>
	<path class="st1" d="M276.9,841c0,0-12.6,16.6,0,30.6h139.9c0,0,11.5-15,0-30.6h-51.4H276.9z"/>
	<polyline class="st2" points="329,925 349.7,927.9 370.3,925 	"/>
	<line class="st2" x1="339.3" y1="926.5" x2="338.9" y2="871.5"/>
	<line class="st2" x1="356.4" y1="871.5" x2="356.4" y2="926.5"/>
	<ellipse class="st3" cx="346.5" cy="856.5" rx="23.8" ry="21.2"/>
	<ellipse class="st1" cx="346.8" cy="856.2" rx="16.5" ry="15.3"/>
	<path class="st3" d="M317.3,852.5c0,0,13.5,5.4,18.4,1.6v4.6c0,0-13.9,3.7-18.4-2.2V852.5z"/>
	<path class="st0" d="M296.1,839c0,0-7.5,25.7,0,35.3h6.6c0,0-9.6-15,0-35.3H296.1z"/>
	<path class="st0" d="M391.7,839h-7c0,0,15,22.2,1.2,35.3h5.8C391.7,874.3,407.4,862.4,391.7,839z"/>
	<line class="st2" x1="279.2" y1="845.5" x2="285.9" y2="845.5"/>
	<line class="st2" x1="279.2" y1="867.1" x2="285.9" y2="867.1"/>
	<line class="st2" x1="306.1" y1="845.5" x2="313.7" y2="845.5"/>
	<line class="st2" x1="306.1" y1="867.1" x2="313.7" y2="867.1"/>
	<line class="st2" x1="372.1" y1="845.5" x2="379.3" y2="845.5"/>
	<line class="st2" x1="403.1" y1="845.5" x2="410.7" y2="845.5"/>
	<line class="st2" x1="403.1" y1="867.1" x2="410.7" y2="867.1"/>
	<line class="st2" x1="372.1" y1="867.1" x2="382" y2="867.1"/>
	<line class="st2" x1="324.5" y1="845.5" x2="317.3" y2="845.5"/>
	<line class="st2" x1="317.3" y1="867.1" x2="324.5" y2="867.1"/>
	<line class="st2" x1="382" y1="845.5" x2="389.2" y2="845.5"/>
	<line class="st2" x1="390.8" y1="867.1" x2="385.6" y2="867.1"/>
	<path class="st1" d="M363.9,872c-0.6,0.5-1.3,1-2,1.4c1.9-1.1,6.5,0.7,8.6,1.2c4,0.8,7.9,1.9,11.8,2.8c5.5,1.3,13-1.7,14.9-6.2
		c2.9-7,2.5-17.5-3.2-23.5c-1.8-1.9-3.8-4.5-7.6-4.7c-0.1-0.2-0.1-0.4-0.2-0.6c-6.1-1.7-14.3-1.5-21-1.5c0,0,5.3,8.6,4.9,14.9
		C369.9,861,368.8,867.9,363.9,872z"/>
	<path class="st2" d="M374.8,845.5c2.7-0.2,5.1,0.3,6.7,1.8"/>
	<path class="st2" d="M371.2,870.4c2.8-0.3,5.1,1.1,7.6,1.5"/>
	<path class="st2" d="M386.5,848.8c0.9,0.8,1.9,1.7,3.1,2.3c0.3,0.2,0,0.7,0.1,1c0.3,0,0.9,0,1.2,0.1c0.1,0.6,0,1.2,0.1,1.8"/>
	<path class="st2" d="M392.8,859.1c0.3,2.1-0.7,4.1-0.4,6.2"/>
	<path class="st2" d="M389.6,869.7c-2.4,0.5-4.4,2-7.2,1.8"/>
	<path class="st4" d="M269.3,1101.6c0,0-15.3-29.7,2.2-20.2c0,0,7.6-8.4,9.9,0.4c0,0,9.8-11,11.4-0.7c0,0,6.1-6.6,9.9,0.7
		c0,0,5.2-8.4,9.2,0.4c0,0,6.3-9.9,10.8,0.7c0,0,7.6-8.8,9.4,0c0,0,4.9-6.2,7.2,0c0,0,22-12.5,7.2,16.1
		C346.5,1099.1,297.1,1107.9,269.3,1101.6z"/>
	<path class="st4" d="M372.1,1100.5c0,0-14.2-29.7,2.1-20.2c0,0,7.1-8.4,9.2,0.4c0,0,9.1-11,10.6-0.7c0,0,5.7-6.6,9.2,0.7
		c0,0,4.8-8.4,8.6,0.4c0,0,5.9-9.9,10.1,0.7c0,0,7.1-8.8,8.8,0c0,0,4.6-6.2,6.7,0c0,0,20.5-12.5,6.7,16.1
		C444.1,1097.9,398,1106.7,372.1,1100.5z"/>
	<path class="st2" d="M317.3,871.1c0,0,5.2,50.2-40.7,49.1"/>
	<path class="st2" d="M382.4,877.4c0,0,2,39.6,39.8,42.9"/>
	<path class="st5" d="M310.6,1021.7c0,0-25.1-17.2-23.8-31.1c1.3-13.9,20.7-7.7,23.8,0c0,0,16.6-16.9,23.8-0.4
		C334.4,990.2,331.7,1015.5,310.6,1021.7z"/>
	<path class="st5" d="M394.2,1021.7c0,0-25.1-17.2-23.8-31.1c1.3-13.9,20.7-7.7,23.8,0c0,0,16.6-16.9,23.8-0.4
		C417.9,990.2,415.3,1015.5,394.2,1021.7z"/>
</g>
</svg>
