<?xml version="1.0" encoding="utf-8"?>
<!-- Generator: Adobe Illustrator 21.1.0, SVG Export Plug-In . SVG Version: 6.00 Build 0)  -->
<svg version="1.1" id="bottom_x2F_3" xmlns="http://www.w3.org/2000/svg" xmlns:xlink="http://www.w3.org/1999/xlink" x="0px"
	 y="0px" viewBox="0 0 700 1200" style="enable-background:new 0 0 700 1200;" xml:space="preserve">
<style type="text/css">
	.st0{fill:#2CAAE1;stroke:#000000;stroke-width:3;stroke-linecap:round;stroke-linejoin:round;stroke-miterlimit:10;}
	.st1{fill:#B6DFED;stroke:#000000;stroke-width:3;stroke-linecap:round;stroke-linejoin:round;stroke-miterlimit:10;}
	.st2{fill:#FFFFFF;stroke:#000000;stroke-width:3;stroke-linecap:round;stroke-linejoin:round;stroke-miterlimit:10;}
	.st3{fill:none;stroke:#1D1D1B;stroke-width:3;stroke-linecap:round;stroke-linejoin:round;stroke-miterlimit:10;}
	.st4{fill:#FAC68D;stroke:#000000;stroke-width:3;stroke-linecap:round;stroke-linejoin:round;stroke-miterlimit:10;}
	.st5{fill:#C876AB;stroke:#000000;stroke-width:3;stroke-linecap:round;stroke-linejoin:round;stroke-miterlimit:10;}
	.st6{fill:#C876AB;stroke:#000000;stroke-width:3;stroke-miterlimit:10;}
	.st7{fill:#FFFFFF;stroke:#000000;stroke-width:3;stroke-miterlimit:10;}
	.st8{fill:#FFFFFF;}
	.st9{fill:none;stroke:#000000;stroke-width:3;stroke-linecap:round;stroke-linejoin:round;stroke-miterlimit:10;}
	.st10{fill:none;stroke:#000000;stroke-width:3;stroke-miterlimit:10;}
	.st11{fill:#955F29;stroke:#000000;stroke-width:3;stroke-miterlimit:10;}
</style>
<g>
	<g>
		<path class="st0" d="M274.6,849.8l-6.2,227.6c0,0,39,23.7,73.3,0V928.8c0,0,10,2.7,15.1,0.9l5.1,148c0,0,55.7,21.2,75.9-1.4
			l-18.9-223.5L274.6,849.8z"/>
		<path class="st1" d="M275.1,839.4l144.4,0.5c0,0,3.6,9.1,0.5,27.5H274.1C274.1,867.4,271.2,853.9,275.1,839.4z"/>
		<path class="st2" d="M366,866.8c0,3-2.4,5.4-5.3,5.4h-26.2c-2.9,0-5.3-2.4-5.3-5.4v-27.2c0-3,2.4-5.4,5.3-5.4h26.2
			c2.9,0,5.3,2.4,5.3,5.4V866.8z"/>
		<path class="st1" d="M360,861c0,2.8-2.2,5-5,5h-14.6c-2.8,0-5-2.3-5-5v-15.4c0-2.8,2.2-5,5-5H355c2.8,0,5,2.3,5,5V861z"/>
		<path class="st2" d="M324.8,850.4c0,0,10.2,2,14.3,0v4.3c0,0-11.7,1.8-14.3-0.8V850.4z"/>
		<path class="st0" d="M299.3,837.8c0,0-5.6,24,0,33h4.9c0,0-7.2-14.1,0-33H299.3z"/>
		<path class="st0" d="M394.3,837.8h-5.3c0,0,11.2,20.7,0.9,33h4.4C394.3,870.9,406.1,859.7,394.3,837.8z"/>
		<path class="st3" d="M329,923.7c0,0,12.5,5.2,14.7,5.6v-55.7"/>
		<path class="st3" d="M362.8,926.3c0,0-4.1,4.3-9.8,4"/>
		<path class="st4" d="M262.5,1067.4c-2.8,0.1-4.3,2.4-4,9.1c0,0-3.1,18.1,5.8,20.8c14.3,4.9,29.8,8,44.9,8.4
			c9.5,0.3,17.5-1.4,26.6-3.9c7.9-2.2,10.8-2,11.8-11.4c0.5-4.2,1.9-19.1-2.7-21.6c-2.5-1.4-8.5,2.3-11,2.9c-7,1.9-14.1,3.2-21.3,4
			c-9,0.9-18.2,0.9-27.1-0.8c-4.5-0.8-9.8-1.9-13.9-4.2C268,1068.9,264.8,1067.4,262.5,1067.4z"/>
		<path class="st4" d="M362.4,1068.7c-2.8,0.1-4.3,2.4-4,9.1c0,0-3.1,18.1,5.8,20.8c14.3,4.9,29.8,8,44.9,8.4
			c9.5,0.3,17.5-1.4,26.6-3.9c7.9-2.2,10.8-2,11.8-11.4c0.5-4.2,1.9-19.1-2.7-21.6c-2.5-1.4-8.5,2.3-11,2.9c-7,1.9-14.1,3.2-21.3,4
			c-9,0.9-18.2,0.9-27.1-0.8c-4.5-0.8-9.8-1.9-13.9-4.2C367.9,1070.2,364.8,1068.7,362.4,1068.7z"/>
	</g>
	<path class="st5" d="M404.8,893.4c5,1.9,10.5,2.3,15.6,2.3c-0.5,0.6,3.6,7.1,4,8.1c4.1,11.4-17.3,6.7-22.5,6.1
		c-5.8-0.6-10.6-3.3-14-8c-2.1-2.9-3.9-6.2-5-9.7c-1.2-3.5-3.2-7.3-3.8-10.9c2.9-0.9,5.8-3.3,8.3-4.9c0.9-0.6,1.8-1.3,2.7-1.9
		c0.5,1.6,1.9,3.2,2.9,4.7c1.3,2.1,2.1,4.6,3.5,6.7C398.5,888.9,401,892.3,404.8,893.4z"/>
	
		<ellipse transform="matrix(0.8161 -0.5779 0.5779 0.8161 -447.8714 394.9644)" class="st2" cx="396.7" cy="901.3" rx="2.5" ry="2.6"/>
	<path class="st6" d="M313.6,871.5c0,0,1.7-0.3,3.8,3.9c0,0,3.3,4.5,3,7.2c0,0-13.7,19.9-17.1,21.4c0,0-2.4,2.1-8,0.4
		c-4.3-1.3-8.9-0.4-13.2-1.6c-1.3-0.4-4.3-0.7-5.2-1.2c-2.9-1.6-5.3-7-3.8-10.1c2.8-0.6,6.4-1.3,8.9-2.5c3.8-1.8,7.6-3.6,11.5-5.2
		C299.5,881.1,310,877.7,313.6,871.5z"/>
	
		<ellipse transform="matrix(0.9231 -0.3846 0.3846 0.9231 -321.8896 184.4331)" class="st7" cx="300.2" cy="897.1" rx="3.1" ry="3.5"/>
	<path class="st8" d="M304.3,1105.6c0,0-7-8.4-14.6-16.6l10.8-12.5c-6.1,0.2-15.1-1.4-15.1-1.4c-1.4,1.4-2.9,3-4.5,4.6l-4.5-6.8
		l-12.1-5.6c0,0,3.4,12.8,9.6,19.8c-5.2,5.5-9.6,10.2-9.6,10.2l14.5,4.2l4.6-5.3c3.3,4,5.2,7.3,5.2,7.3S302,1105.4,304.3,1105.6z"/>
	<path class="st9" d="M264.3,1097.3c0,0,13.5-14.4,21.2-22.2c0,0,9.1,1.5,15.1,1.4l-21.8,25.1L264.3,1097.3z"/>
	<path class="st9" d="M264.3,1067.4c0,0,4.4,16.4,12.1,22.2s12.1,14,12.1,14s13.4,1.8,15.7,1.9c0,0-13.6-16.3-23.2-25.4l-4.7-7.1
		L264.3,1067.4z"/>
	<path class="st8" d="M333.8,1071.9c0,0-1.9,2.4-4.3,5.6l-4.8-3.4l-15.8,2.2c0,0,5.5,5.8,12.6,12c-1.7,2.4-2.9,4.4-3.3,5.5
		c-1.5,4-9.1,12.1-9.1,12.1s16.1-0.1,17.8-1.7c0.5-0.5,2.6-3.4,5.3-7.3c2.3,1.6,4.6,3.1,6.8,4.2c0,0,7.9-1.3,8.5-10.4l-7.4-5.3
		c4.1-6,7.6-11.2,7.6-11.2S348,1062.8,333.8,1071.9z"/>
	<path class="st9" d="M309,1076.2c0,0,17.2,18.1,30.1,24.8c0,0,7.9-1.3,8.5-10.4l-22.8-16.5L309,1076.2z"/>
	<path class="st9" d="M333.8,1071.9c0,0-14.1,17.8-15.6,21.8c-1.5,4-9.1,12.1-9.1,12.1s16.1-0.1,17.8-1.7c1.7-1.6,20.8-30,20.8-30
		S348,1062.8,333.8,1071.9z"/>
	<path class="st8" d="M403.8,1106.6c0,0-7-8.3-14.6-16.4l10.8-12.3c-6.1,0.2-15.1-1.4-15.1-1.4c-1.4,1.4-2.9,2.9-4.5,4.6l-4.5-6.7
		l-12.1-5.6c0,0,3.4,12.6,9.6,19.5c-5.2,5.4-9.6,10-9.6,10l14.5,4.2l4.6-5.2c3.3,3.9,5.2,7.3,5.2,7.3S401.5,1106.4,403.8,1106.6z"/>
	<path class="st9" d="M363.8,1098.5c0,0,13.5-14.2,21.2-21.9c0,0,9.1,1.5,15.1,1.4l-21.8,24.7L363.8,1098.5z"/>
	<path class="st9" d="M363.8,1068.9c0,0,4.4,16.2,12.1,21.9c7.7,5.7,12.1,13.8,12.1,13.8s13.4,1.8,15.7,1.9c0,0-13.6-16.1-23.2-25.1
		l-4.7-7L363.8,1068.9z"/>
	<path class="st8" d="M433.3,1073.4c0,0-1.9,2.3-4.3,5.5l-4.8-3.4l-15.8,2.2c0,0,5.5,5.7,12.6,11.9c-1.7,2.4-2.9,4.4-3.3,5.4
		c-1.5,3.9-9.1,11.9-9.1,11.9s16.1-0.1,17.8-1.7c0.5-0.5,2.6-3.4,5.3-7.2c2.3,1.6,4.6,3,6.8,4.2c0,0,7.9-1.3,8.5-10.3l-7.4-5.3
		c4.1-6,7.6-11,7.6-11S447.4,1064.4,433.3,1073.4z"/>
	<path class="st9" d="M408.4,1077.6c0,0,17.2,17.9,30.1,24.5c0,0,7.9-1.3,8.5-10.3l-22.8-16.3L408.4,1077.6z"/>
	<path class="st9" d="M433.3,1073.4c0,0-14.1,17.6-15.6,21.5c-1.5,3.9-9.1,11.9-9.1,11.9s16.1-0.1,17.8-1.7
		c1.7-1.6,20.8-29.7,20.8-29.7S447.4,1064.4,433.3,1073.4z"/>
	<path class="st10" d="M300.6,910.6c0,0,16.9,3,20.4,6.9"/>
	<path class="st10" d="M303,919.4c0,0,12.5,4,15.2,4.7"/>
	<g>
		<path class="st11" d="M420.1,1008.1c3.4-1.4,3.1-8.7,3.1-11.6c0-2.2-0.2-4.3-0.5-6.5c-0.4-2.6-0.9-5.2-1.6-7.8
			c-0.6-2.4-0.6-5.4-3.1-6.6c-2.1-1-4.4-0.2-6.6,0.1c-3.1,0.4-6.3,0.4-9.5,0.6c-2.5,0.2-5,0.9-7.5,1.1c-2.7,0.2-5.3,0.2-8,0.7
			c-2.4,0.4-4.9,0.8-7.4,0.4c-2.9-0.5-6.5-0.3-9.1,1.3c-3.2,1.9-3.3,5.5-3.7,8.9c-0.9,7.5-0.4,15.5,3.9,21.9c0.4-0.1,0.8,0,1.3-0.1
			c0.1,0.1,0.2,0.2,0.3,0.4c1.5-0.1,3.1,0.6,4.6,0.6c1.3,0,2.6,0,4,0c3.8,0,7.6,0,11.4-0.1c8.1-0.2,16.5-0.4,24.5-2.2
			C417.5,1009,418.8,1008.6,420.1,1008.1z"/>
		<path class="st10" d="M369.6,985.2c-0.1,0.9-0.4,1.9,0,2.7"/>
		<path class="st10" d="M373.2,1007.5c-1-0.9-2.6-1.1-3.1-2.5"/>
		<path class="st10" d="M369.4,991.2c-0.1,0.9-0.5,1.7-0.4,2.6"/>
		<path class="st10" d="M368.8,997.8c-0.1,1.2-0.2,2.5,0.3,3.5"/>
		<path class="st10" d="M375.8,1008.2c1.3,0.5,2.6,0.3,4,0.4"/>
		<path class="st10" d="M382.3,1009c1.3,0.2,2.9,0.9,4.2,0.4"/>
		<path class="st10" d="M388.9,1009.2c1-0.5,2.6,0.2,3.8,0.1"/>
		<path class="st10" d="M395.8,1009.2c1-0.7,2.9-0.3,4.1-0.7"/>
		<path class="st10" d="M403.2,1008.5c1.1,0.3,2.8,0.4,3.9,0.2"/>
		<path class="st10" d="M409.9,1008.1c1.3-0.2,2.1-0.3,3.3-1"/>
		<path class="st10" d="M415.5,1007.1c1.2-0.9,3-1.1,3.7-2.4"/>
		<path class="st10" d="M419.7,1002.3c0-1,0.3-2.2,0.4-3.2"/>
		<path class="st10" d="M420.4,996.5c-0.3-1.1-0.5-2.3-0.6-3.4"/>
		<path class="st10" d="M420,990.1c-0.6-0.9-0.6-2.4-1.1-3.5"/>
		<path class="st10" d="M417.7,983.4c0.3-0.5,0-2.6-0.2-3.4"/>
		<path class="st10" d="M415.9,978.4c-1.1,0-2.1-0.4-3.2-0.1"/>
		<path class="st10" d="M370,983.2c0.4-0.8,1.1-1.8,2-2.2c0.9-0.4,1.5,0,2.4-0.2"/>
		<path class="st10" d="M376.8,981.1c1.3,0,2.4,0.4,3.7,0.6"/>
		<path class="st10" d="M382.5,981.5c0.5,0.3,1.1,0.4,1.7,0.2c0.1,0.1,0.1,0.1,0.2,0.2c0.4-0.1,0.7-0.1,1.1,0"/>
		<path class="st10" d="M387.8,980.9c0.8,0.8,3.1,0.5,4.1,0.3"/>
		<path class="st10" d="M394.1,980.2c0.9,0.4,2.8,0.7,3.7,0.3"/>
		<path class="st10" d="M400.3,980.1c1.2-0.1,2.3,0.1,3.5-0.1"/>
		<path class="st10" d="M405.8,979.2c1.4-0.4,2.6-0.8,4-0.6"/>
	</g>
	<g>
		<path class="st11" d="M280.3,1010.5c-3.4-1.3-3.4-8.6-3.5-11.5c-0.1-2.2,0.1-4.3,0.3-6.5c0.3-2.6,0.8-5.2,1.4-7.8
			c0.6-2.4,0.4-5.4,2.9-6.7c2.1-1.1,4.4-0.3,6.6-0.1c3.2,0.3,6.3,0.2,9.5,0.3c2.6,0.1,5,0.8,7.5,0.9c2.7,0.1,5.3,0,8.1,0.4
			c2.4,0.3,4.9,0.7,7.4,0.2c2.9-0.6,6.5-0.5,9.1,1c3.3,1.8,3.5,5.4,3.9,8.8c1.1,7.4,0.9,15.5-3.3,22c-0.4-0.1-0.8,0.1-1.3-0.1
			c-0.1,0.1-0.2,0.2-0.3,0.4c-1.5-0.1-3.1,0.7-4.6,0.8c-1.3,0.1-2.6,0.1-4,0.1c-3.8,0.1-7.6,0.2-11.4,0.2c-8.1,0-16.5,0.1-24.5-1.5
			C282.8,1011.3,281.5,1011,280.3,1010.5z"/>
		<path class="st10" d="M330.1,986.1c0.1,0.9,0.4,1.9,0,2.7"/>
		<path class="st10" d="M327.1,1008.6c1-0.9,2.5-1.1,3-2.6"/>
		<path class="st10" d="M330.4,992.1c0.1,0.9,0.5,1.7,0.5,2.6"/>
		<path class="st10" d="M331.2,998.7c0.1,1.2,0.3,2.5-0.2,3.5"/>
		<path class="st10" d="M324.5,1009.3c-1.3,0.5-2.6,0.3-3.9,0.5"/>
		<path class="st10" d="M318,1010.3c-1.3,0.3-2.8,1-4.2,0.6"/>
		<path class="st10" d="M311.4,1010.7c-1-0.5-2.6,0.3-3.8,0.2"/>
		<path class="st10" d="M304.5,1010.9c-1.1-0.7-2.9-0.2-4.1-0.6"/>
		<path class="st10" d="M297.1,1010.4c-1.1,0.3-2.8,0.5-3.9,0.4"/>
		<path class="st10" d="M290.5,1010.2c-1.3-0.2-2.1-0.2-3.4-0.9"/>
		<path class="st10" d="M284.8,1009.4c-1.2-0.9-3-1-3.7-2.3"/>
		<path class="st10" d="M280.4,1004.6c-0.1-1-0.4-2.2-0.5-3.2"/>
		<path class="st10" d="M279.6,998.9c0.3-1.1,0.4-2.3,0.5-3.4"/>
		<path class="st10" d="M279.8,992.5c0.6-0.9,0.6-2.4,1-3.5"/>
		<path class="st10" d="M281.9,985.8c-0.3-0.5-0.1-2.6,0.1-3.4"/>
		<path class="st10" d="M283.5,980.7c1.1,0,2.1-0.5,3.2-0.2"/>
		<path class="st10" d="M329.6,984.1c-0.4-0.8-1.2-1.8-2.1-2.1c-0.9-0.4-1.5,0.1-2.4-0.2"/>
		<path class="st10" d="M322.8,982.3c-1.3,0.1-2.4,0.5-3.7,0.7"/>
		<path class="st10" d="M317.1,982.8c-0.5,0.3-1.1,0.4-1.7,0.3c-0.1,0.1-0.1,0.1-0.2,0.2c-0.4-0.1-0.7-0.1-1.1,0"/>
		<path class="st10" d="M311.7,982.3c-0.8,0.8-3.1,0.6-4.1,0.4"/>
		<path class="st10" d="M305.4,981.9c-0.8,0.5-2.8,0.8-3.7,0.4"/>
		<path class="st10" d="M299.2,981.9c-1.2-0.1-2.3,0.2-3.5,0"/>
		<path class="st10" d="M293.7,981.1c-1.4-0.3-2.6-0.7-4-0.5"/>
	</g>
	<path class="st3" d="M361.9,921.7c0,0,2.3-22.2,1.8-38.9"/>
</g>
</svg>
