<?xml version="1.0" encoding="utf-8"?>
<!-- Generator: Adobe Illustrator 21.1.0, SVG Export Plug-In . SVG Version: 6.00 Build 0)  -->
<svg version="1.1" id="bottom_x2F_4" xmlns="http://www.w3.org/2000/svg" xmlns:xlink="http://www.w3.org/1999/xlink" x="0px"
	 y="0px" viewBox="0 0 700 1200" style="enable-background:new 0 0 700 1200;" xml:space="preserve">
<style type="text/css">
	.st0{fill:#36AC69;stroke:#1D1D1B;stroke-width:3;stroke-linecap:round;stroke-linejoin:round;stroke-miterlimit:10;}
</style>
<path class="st0" d="M442.1,1061.7c1.3,9.9,6.5,17.2,7.9,27.4c0.5,3.7,2.2,11.9-0.6,13.6c-0.9,0.6-6.1-3.3-6.3-4.7
	c-0.1-0.6-0.1-2.5-0.4-3c-1-1.1-1.3-0.6-2.2-2.3c-9.2,1.7-9.4,19.4-18.8,13.1c-4-2.6-5.9-8.5-11.4-6.3c-3.5,1.4-2.6,9.7-7.8,5.2
	c-8-22.6-10.5-7-15.6,5.1c-3.6-3.2-4.7-11-5.9-17.1c-5.1-0.9-9.7,3.6-12.1,10.9c12.3-37.2-1.5-72.3-2.5-113.5
	c-0.3-12.1-0.8-87.3-14.8-67.6c-6.1,8.6-7.2,37.5-7.9,49.5c-2,32.9,0.4,67.3,2,100c0.5,10,2.4,20.3,2,30.5
	c-1-3.6-10.3-13.8-12.5-13.5c-4.5,0.7-3,12.1-7.3,13.3c-4.7,1.3-6.5-8-10.4-9.3c-6.7-2.2-4.2,7.7-7.8,9.4
	c-3.5,1.7-12-12.5-17.6-13.3c-15.4-2.2-25.6,15.8-22.8,0c2.8-15.8-14.4-13.5-14.4-13.5c11-5.6,28.9-236.4,28.9-236.4l131.7-1.2
	l3.6,22.3C419.4,860.4,434.4,1001.9,442.1,1061.7z"/>
</svg>
