<?xml version="1.0" encoding="utf-8"?>
<!-- Generator: Adobe Illustrator 21.1.0, SVG Export Plug-In . SVG Version: 6.00 Build 0)  -->
<svg version="1.1" id="bottom_x2F_5" xmlns="http://www.w3.org/2000/svg" xmlns:xlink="http://www.w3.org/1999/xlink" x="0px"
	 y="0px" viewBox="0 0 700 1200" style="enable-background:new 0 0 700 1200;" xml:space="preserve">
<style type="text/css">
	.st0{fill:#AD73AE;stroke:#1D1D1B;stroke-width:3;stroke-miterlimit:10;}
	.st1{fill:#2CAAE1;stroke:#000000;stroke-width:3;stroke-linecap:round;stroke-linejoin:round;stroke-miterlimit:10;}
	.st2{fill:#E62671;stroke:#1D1D1B;stroke-width:3;stroke-linecap:round;stroke-linejoin:round;stroke-miterlimit:10;}
	.st3{fill:#F2E500;stroke:#1D1D1B;stroke-width:3;stroke-linecap:round;stroke-linejoin:round;stroke-miterlimit:10;}
	.st4{fill:none;stroke:#000000;stroke-width:3;stroke-linecap:round;stroke-linejoin:round;stroke-miterlimit:10;}
</style>
<g>
	<path class="st0" d="M413.3,840.9H287.4c0,0-8.9,172.3-10.1,201.5c-0.1,2.4-0.2,4.9-0.4,7.5h57.5c3.9-51.1,8.7-116.9,8.7-125.3
		c0-13.9,1.3-22.8,5.1-22.8c2,0,5.7-0.3,8.8-0.7c2.8-0.3,5.3,1.7,5.6,4.6c1.8,17.5,8.3,90.7,13.2,144.3H431L413.3,840.9z"/>
	<g>
		<path class="st1" d="M295,852.7l-45.4,92.8c0,0,13.2,17.5,30.9,1.7c0,0,26.3,21.5,34,6.4c0,0,17,18.2,27,0c0,0,27.8,17.5,34.8,0
			c0,0,20.1,16.7,28.2,0c0,0,26.6,13.5,26.6-5.1c0,0,17,9.3,17.8-7l-35.5-88.8H295z"/>
		<path class="st2" d="M286.1,870.9c0,0-12.2-12.8,0-30.6h129.6c0,0,13.8,16.3,5,30.6H286.1z"/>
		<path class="st3" d="M369.3,870.5c0,2.5-2.1,4.6-4.6,4.6h-31c-2.5,0-4.6-2.1-4.6-4.6v-28.6c0-2.5,2.1-4.6,4.6-4.6h31
			c2.5,0,4.6,2.1,4.6,4.6V870.5z"/>
		<path class="st2" d="M365,867.2c0,2.4-2.1,4.4-4.6,4.4h-22.1c-2.5,0-4.6-2-4.6-4.4v-21c0-2.4,2.1-4.4,4.6-4.4h22.1
			c2.5,0,4.6,2,4.6,4.4V867.2z"/>
		<path class="st3" d="M324.9,853.5c0,0,8.5,1.9,11.6-0.8v3.5c0,0-5,2.7-11.6,0.6V853.5z"/>
		<path class="st1" d="M304.8,837.2c0,0-5.8,16.6,0,37.8h3.9c0,0-5.4-16.6,0-37.8H304.8z"/>
		<path class="st1" d="M392.1,837.2c0,0,5.8,21.7,0,37.1h4.6c0,0,7-7.8,0-37.1H392.1z"/>
		<line class="st4" x1="287.2" y1="844.4" x2="291.9" y2="844.2"/>
		<line class="st4" x1="295" y1="844.4" x2="299.8" y2="844.4"/>
		<line class="st4" x1="310.2" y1="844.4" x2="315.6" y2="844.2"/>
		<line class="st4" x1="319.5" y1="844.2" x2="324.9" y2="844.2"/>
		<line class="st4" x1="287.2" y1="867.3" x2="291.9" y2="867.4"/>
		<line class="st4" x1="293.8" y1="867.4" x2="298.4" y2="867.4"/>
		<line class="st4" x1="310.2" y1="867.3" x2="314.8" y2="867.4"/>
		<line class="st4" x1="317.2" y1="867.4" x2="323.1" y2="867.4"/>
		<line class="st4" x1="372.8" y1="844.4" x2="378.9" y2="844.2"/>
		<line class="st4" x1="372.8" y1="867.4" x2="378.9" y2="867.4"/>
		<line class="st4" x1="382.2" y1="844.2" x2="388.8" y2="844.2"/>
		<line class="st4" x1="383.2" y1="867.3" x2="388.8" y2="867.4"/>
		<line class="st4" x1="402.5" y1="867.4" x2="407.5" y2="867.4"/>
		<line class="st4" x1="412.3" y1="867.3" x2="417.6" y2="867.3"/>
		<line class="st4" x1="402.5" y1="844.4" x2="407.5" y2="844.4"/>
		<line class="st4" x1="410.3" y1="844.2" x2="414" y2="844.2"/>
		<line class="st4" x1="280.5" y1="947.2" x2="296.1" y2="870.9"/>
		<line class="st4" x1="314.5" y1="953.6" x2="317.2" y2="870.9"/>
		<line class="st4" x1="341.5" y1="953.6" x2="341.2" y2="875.1"/>
		<line class="st4" x1="376.2" y1="953.6" x2="367.1" y2="874.4"/>
		<line class="st4" x1="404.4" y1="953.6" x2="386" y2="871.6"/>
		<line class="st4" x1="431.1" y1="948.5" x2="402.5" y2="871.6"/>
	</g>
</g>
</svg>
