<?xml version="1.0" encoding="utf-8"?>
<!-- Generator: Adobe Illustrator 21.1.0, SVG Export Plug-In . SVG Version: 6.00 Build 0)  -->
<svg version="1.1" id="bottom_x2F_7" xmlns="http://www.w3.org/2000/svg" xmlns:xlink="http://www.w3.org/1999/xlink" x="0px"
	 y="0px" viewBox="0 0 700 1200" style="enable-background:new 0 0 700 1200;" xml:space="preserve">
<style type="text/css">
	.st0{fill:#0EB1E3;stroke:#1D1D1B;stroke-width:3;stroke-miterlimit:10;}
	.st1{fill:#B6DFED;stroke:#000000;stroke-width:3;stroke-miterlimit:10;}
	.st2{fill:#F2E500;stroke:#1D1D1B;stroke-width:3;stroke-miterlimit:10;}
	.st3{fill:none;stroke:#1D1D1B;stroke-width:3;stroke-miterlimit:10;}
	.st4{fill:#79C6E3;stroke:#1D1D1B;stroke-width:3;stroke-miterlimit:10;}
</style>
<g>
	<path class="st0" d="M285.5,840.1L274.6,920l69.8,13.7c0,0-4.5-22.9,5.1-26.2c0,0,12.5-6.7,12.5,21.3l62.7-5.6l-8.5-83.2H285.5z"/>
	<polygon class="st1" points="285.5,840.1 283,859 306.7,859.2 306.7,840.1 	"/>
	<rect x="315.9" y="840.1" class="st1" width="73" height="19"/>
	<polygon class="st1" points="398.1,840.1 398.2,860.1 418.1,860.1 416.2,840.1 	"/>
	<path class="st2" d="M364.6,860.1c0,1.5-1,2.8-2.2,2.8h-22.9c-1.2,0-2.2-1.2-2.2-2.8V841c0-1.5,1-2.8,2.2-2.8h22.9
		c1.2,0,2.2,1.2,2.2,2.8V860.1z"/>
	<path class="st1" d="M360.4,861.6c-0.6-0.5-1.4-0.9-2.5-1c-2.1-0.2-4.3,0-6.3,0c-3.3,0-6.5,0-9.8,0c-1.2,0-2.2-1.2-2.2-2.6v-14.7
		c0-1.5,1-2.6,2.2-2.6c3.2,0,6.4,0,9.6,0c4.4,0,9.9-0.8,14.1,1.3c2.1,1,4,3,5.9,4.5c2.4,1.8,4.1,4.3,5.3,7.3c1.2,3,1.2,5.4,1.2,8.9
		c0,2.1,0.1,3.8-1.3,5.2c-1.4,1.5-3.8,1.6-5.6,1.6c-1.9,0-3.5,0-5-1.2c-1.2-1-2-2.1-3-3.3C361.9,863.4,361.3,862.3,360.4,861.6z"/>
	<path class="st2" d="M335.4,848.5l-0.6,2.1c0,0,4.3,3.4,6.9,1l-0.6-1.9C341.2,849.6,338.3,850.8,335.4,848.5z"/>
	<line class="st3" x1="347.5" y1="862.9" x2="347.9" y2="907.2"/>
	<line class="st3" x1="355.5" y1="862.9" x2="356.1" y2="908.1"/>
	<path class="st3" d="M318.1,859.2c0,0,1.7,39.5-39.1,28.4"/>
	<path class="st3" d="M385.6,859.2c0,0-4,33.3,35.6,30.3"/>
	<path class="st4" d="M277.2,915.5c0,0-6.6-0.3-7.2,11.8c0,0,0.1,8.4,9,8l59.3,9.8c0,0,6.9,1,7.7-6.3c0,0,4.1-9-5-13.6L277.2,915.5z
		"/>
	<path class="st4" d="M377.9,924.2c0,0-19-2-19.2,7.9c0,0-1.8,9.2,4,10.6c0,0,54.1,0.3,58.6-2.8c0,0,10.8-1.7,8.3-11.8
		c0,0,1.9-8.4-7.2-7.7C422.4,920.4,381.2,926.6,377.9,924.2z"/>
</g>
</svg>
