<?xml version="1.0" encoding="utf-8"?>
<!-- Generator: Adobe Illustrator 21.1.0, SVG Export Plug-In . SVG Version: 6.00 Build 0)  -->
<svg version="1.1" id="bottom_x2F_8" xmlns="http://www.w3.org/2000/svg" xmlns:xlink="http://www.w3.org/1999/xlink" x="0px"
	 y="0px" viewBox="0 0 700 1200" style="enable-background:new 0 0 700 1200;" xml:space="preserve">
<style type="text/css">
	.st0{fill:#6B4192;stroke:#000000;stroke-width:3;stroke-miterlimit:10;}
	.st1{fill:none;stroke:#000000;stroke-width:3;stroke-miterlimit:10;}
</style>
<g>
	<path class="st0" d="M286,859.5l-50.1,91.3c0,0,14.6,17.2,34.1,1.7c0,0,29,21.2,37.6,6.3c0,0,18.8,17.9,29.9,0
		c0,0,30.7,17.2,38.4,0c0,0,22.2,16.4,31.1,0c0,0,29.4,13.3,29.4-5c0,0,18.8,9.1,19.6-6.9l-39.3-87.4H286z"/>
	<rect x="286" y="840.2" class="st0" width="130.2" height="18.5"/>
	<line class="st1" x1="270" y1="952.4" x2="298.4" y2="859.5"/>
	<line class="st1" x1="307.6" y1="958.7" x2="317.6" y2="858.7"/>
	<line class="st1" x1="337.5" y1="958.7" x2="336.4" y2="858.7"/>
	<line class="st1" x1="375.9" y1="958.7" x2="364.6" y2="859.5"/>
	<line class="st1" x1="407" y1="958.7" x2="385.7" y2="858.7"/>
	<line class="st1" x1="436.5" y1="953.7" x2="403.6" y2="858.7"/>
</g>
</svg>
