<?xml version="1.0" encoding="utf-8"?>
<!-- Generator: Adobe Illustrator 21.1.0, SVG Export Plug-In . SVG Version: 6.00 Build 0)  -->
<svg version="1.1" id="ear1" xmlns="http://www.w3.org/2000/svg" xmlns:xlink="http://www.w3.org/1999/xlink" x="0px" y="0px"
	 viewBox="0 0 700 1200" style="enable-background:new 0 0 700 1200;" xml:space="preserve">
<style type="text/css">
	.st0{fill:#FCD4A3;stroke:#1D1D1B;stroke-width:3;stroke-miterlimit:10;}
</style>

<path class="st0" d="M429.5,271.9c-41.2,0-74.6,33.7-74.6,75.4c0,9.3,1.7,18.1,4.7,26.3c23.1,4.3,41.5,22.2,46.3,45.2
	c7.4,2.5,15.4,3.9,23.6,3.9c41.2,0,74.6-33.7,74.6-75.4S470.7,271.9,429.5,271.9z"/>
<path class="st0" d="M344,372.8c2.8-8,4.4-16.6,4.4-25.6c0-41.6-33.4-75.4-74.6-75.4s-74.6,33.7-74.6,75.4
	c0,41.6,33.4,75.4,74.6,75.4c6.1,0,12.1-0.8,17.8-2.2C296.2,394.8,317.6,375,344,372.8z"/>
</svg>
