<?xml version="1.0" encoding="utf-8"?>
<!-- Generator: Adobe Illustrator 21.1.0, SVG Export Plug-In . SVG Version: 6.00 Build 0)  -->
<svg version="1.1" id="ear_x2F_2" xmlns="http://www.w3.org/2000/svg" xmlns:xlink="http://www.w3.org/1999/xlink" x="0px" y="0px"
	 viewBox="0 0 700 1200" style="enable-background:new 0 0 700 1200;" xml:space="preserve">
<style type="text/css">
	.st0{fill:#FCD4A3;stroke:#1D1D1B;stroke-width:3;stroke-miterlimit:10;}
	.st1{fill:none;stroke:#1D1D1B;stroke-width:3;stroke-linecap:round;stroke-linejoin:round;stroke-miterlimit:10;}
</style>
<g>
	<path class="st0" d="M316,510.2c-26.2,7.7-39.6,7.5-58.1,20.2c-8.7,6-13.1,16.3-24.8,20c-12.7,4.1-29.7,1.7-40.8-4.8
		c-8.3-4.9-14.4-12.7-18.7-21.2c-10-19.7-11.3-44.1-4.1-64.8c6-17.2,14.5-39.2,33.1-46.2c18.4-6.9,38.7,4.8,51.7,17.4
		c0,0,22.2,31.5,55.8,31.5"/>
	<path class="st1" d="M242.5,466.3c-4.6-8.2-12-19-21.5-21.7c-19.5-5.6-47.1,9.8-42.2,32.9c1.1,5,6.1,10.4,9.9,12.9
		c4.3,2.8,10.6,4.7,12.4,10c2.4,6.9-4.3,15.3-4.8,22.1c-0.7,9.5,12,18.9,21.8,16.3c4.1-1.1,8.7-6.7,11.1-9.4"/>
	<path class="st0" d="M406.7,466.9c0,0,13.4-4.6,29.4-7.8c16-3.1,31.4-28.4,31.4-28.4c11.5-12.7,29.5-24.3,45.9-17.4
		c16.5,7,24.1,29,29.4,46.2c6.4,20.7,5.2,45.1-3.6,64.8c-3.8,8.5-9.3,16.3-16.6,21.2c-9.8,6.6-24.9,8.9-36.2,4.8
		c-10.4-3.7-15.6-12.3-22-20c0,0-6.4-10.5-46.2-10.8"/>
	<path class="st1" d="M475.2,461.6c4.2-7.9,10.9-18.3,19.4-20.5c17.5-4.6,41.9,12.2,37.2,34.9c-1,5-5.5,10-9,12.3
		c-3.9,2.6-9.5,4.2-11.2,9.3c-2.2,6.8,3.6,15.4,4,22.2c0.6,9.5-10.9,18.2-19.6,15.1c-3.6-1.3-7.7-7.1-9.8-9.9"/>
</g>
</svg>
