<?xml version="1.0" encoding="utf-8"?>
<!-- Generator: Adobe Illustrator 21.1.0, SVG Export Plug-In . SVG Version: 6.00 Build 0)  -->
<svg version="1.1" id="ear_x2F_3" xmlns="http://www.w3.org/2000/svg" xmlns:xlink="http://www.w3.org/1999/xlink" x="0px" y="0px"
	 viewBox="0 0 700 1200" style="enable-background:new 0 0 700 1200;" xml:space="preserve">
<style type="text/css">
	.st0{fill:#F9F9F9;stroke:#1D1D1B;stroke-width:3;stroke-linecap:round;stroke-linejoin:round;stroke-miterlimit:10;}
	.st1{fill:#D178AE;stroke:#1D1D1B;stroke-width:3;stroke-linecap:round;stroke-linejoin:round;stroke-miterlimit:10;}
</style>
<g>
	<path class="st0" d="M284.3,385.5c0,0-63.6-202.2-20.8-236.9c0,0,59-57.2,68.3,234.3"/>
	<path class="st1" d="M298,381.9c-6.8-1.5-10.7-34.8-12.2-40.6c-5.1-20.4-9.8-40.9-13.6-61.6c-2.6-14.2-20.2-81.2,2.9-88.6
		c0,0,33.5-38.2,40.5,189.7"/>
	<path class="st0" d="M420.5,387.7c0,0,63.1-202.2,20.7-236.9c0,0-58.5-57.2-67.7,234.3"/>
	<path class="st1" d="M407,384.2c6.7-1.5,10.6-34.8,12.1-40.6c5.1-20.4,9.7-40.9,13.5-61.6c2.6-14.2,20-81.2-2.9-88.6
		c0,0-33.3-38.2-40.2,189.7"/>
</g>
</svg>
