<?xml version="1.0" encoding="utf-8"?>
<!-- Generator: Adobe Illustrator 21.1.0, SVG Export Plug-In . SVG Version: 6.00 Build 0)  -->
<svg version="1.1" id="ear_x2F_4" xmlns="http://www.w3.org/2000/svg" xmlns:xlink="http://www.w3.org/1999/xlink" x="0px" y="0px"
	 viewBox="0 0 700 1200" style="enable-background:new 0 0 700 1200;" xml:space="preserve">
<style type="text/css">
	.st0{fill:#F9F9F9;stroke:#1D1D1B;stroke-width:3;stroke-linecap:round;stroke-linejoin:round;stroke-miterlimit:10;}
	.st1{fill:#D178AE;stroke:#1D1D1B;stroke-width:3;stroke-linecap:round;stroke-linejoin:round;stroke-miterlimit:10;}
	.st2{fill:none;stroke:#1D1D1B;stroke-width:3;stroke-linecap:round;stroke-linejoin:round;stroke-miterlimit:10;}
</style>
<g>
	<path class="st0" d="M280.4,375.6c1.6-89.7-35.2-152.4-35.2-152.4c-53.8-78.5,0-105.3,0-105.3s35.9-17.9,62.8,35.9
		c0,0,42.4,174.8,21.2,221.9"/>
	<path class="st1" d="M311.5,371.2c4.1-2.8,4.4-6,5.2-10.9c2.2-13.9-2.1-33.3-3.1-47.5c-1.2-18-3.4-36-5.4-53.9
		c-1.1-10.3-8.2-98.5-27.9-93.9c0,0-42-9-15.1,44.8c6.1,12.1,7.3,25.1,11.7,37.7c7.6,21.6,9.4,42,14.1,64.7
		c3.9,18.8,3.4,42,2.3,61.1"/>
	<path class="st0" d="M371.8,375.6c0,0,16.9-143.4,12.9-164.7c0,0-40.9-5.6-35.3-43.7c3.1-21.2,15.7-33.8,38-38.1
		c1.3-0.2,2.6-0.4,3.9-0.6c53.2-5,41.8,101.6,39.8,135.1c-2.3,37.5-6.5,74.9-12.2,112"/>
	<path class="st2" d="M416.6,190.7c0,0-11.2,20.2-31.9,20.2"/>
	<path class="st1" d="M400.6,375.6c0,0,26-160.3,16-174.8l-2.6-6.2c0,0-10.9,12.1-17.6,14c0,0,0.1,140.1-11.7,167"/>
</g>
</svg>
