<?xml version="1.0" encoding="utf-8"?>
<!-- Generator: Adobe Illustrator 21.1.0, SVG Export Plug-In . SVG Version: 6.00 Build 0)  -->
<svg version="1.1" id="ear_x2F_5" xmlns="http://www.w3.org/2000/svg" xmlns:xlink="http://www.w3.org/1999/xlink" x="0px" y="0px"
	 viewBox="0 0 700 1200" style="enable-background:new 0 0 700 1200;" xml:space="preserve">
<style type="text/css">
	.st0{fill:#801810;stroke:#1D1D1B;stroke-width:3;stroke-linecap:round;stroke-linejoin:round;stroke-miterlimit:10;}
	.st1{fill:#D178AE;stroke:#1D1D1B;stroke-width:3;stroke-linecap:round;stroke-linejoin:round;stroke-miterlimit:10;}
</style>


<g>
	<path class="st0" d="M341.3,375.4c-14.4-7.5-18-33.2-18-33.2c-13-116.2-68.3-86.7-68.3-86.7s-54.2,26.2,5.8,116.3
		c0,0,21.5,43.4,80.6,47.8"/>
	<path class="st0" d="M360.5,419.6c59.9-4.4,86.5-49.3,86.5-49.3c80.8-90.9,18.9-109.6,18.9-109.6s-55.8-28.8-77.7,70.9
		c0,0-11.8,30.8-27.7,41.9"/>
</g>
<g>
	<path class="st1" d="M341.3,388.4c-23.3-7-30.7-42.5-30.7-42.5c-3.6-9.9-24.1-63.6-28-67.8c-6.9-7.5-14.6-8-22.9-1.9
		c-7.9,5.7-12,18.2-11.2,27.4c0.5,5.5,19.9,57.8,23.6,62.1c0,0,15,38.8,69.1,42.5"/>
	<path class="st1" d="M360.5,407.9c39.8-3.6,61-25.9,69-36.5c3-4,6.4-7.8,10.1-11.3c5.2-4.8,10-10.9,19.5-29.2
		c3.5-7.9,9.6-15.3,10.3-24.2c0.7-8.6-2.9-20.2-9.9-25.9c-12.6-10.3-24-5.6-30.8,7.9c-1.6,3.3-23.2,41-26.4,48.5
		c0,0-17.5,39.9-41.7,50"/>
</g>
</svg>
