<?xml version="1.0" encoding="utf-8"?>
<!-- Generator: Adobe Illustrator 21.1.0, SVG Export Plug-In . SVG Version: 6.00 Build 0)  -->
<svg version="1.1" id="ear_x2F_6" xmlns="http://www.w3.org/2000/svg" xmlns:xlink="http://www.w3.org/1999/xlink" x="0px" y="0px"
	 viewBox="0 0 700 1200" style="enable-background:new 0 0 700 1200;" xml:space="preserve">
<style type="text/css">
	.st0{fill:#F9F9F9;stroke:#1D1D1B;stroke-width:3;stroke-linecap:round;stroke-linejoin:round;stroke-miterlimit:10;}
	.st1{fill:#D178AE;stroke:#1D1D1B;stroke-width:3;stroke-linecap:round;stroke-linejoin:round;stroke-miterlimit:10;}
</style>
<g>
	<g>
		<path class="st0" d="M250.9,473.6c0,0-62.3-127.8-41.9-170.2c0,0,93.9-1.9,126.3,61.6"/>
		<path class="st1" d="M230.3,332.2c0,0-6.8,47.7,27.6,98c0,0,42.3-62,51.1-54.1C309,376.1,263.6,322.3,230.3,332.2z"/>
	</g>
	<g>
		<path class="st0" d="M461.1,478.8c0,0,56.4-141.6,36.9-184c0,0-101.5,10.8-132.7,76.3"/>
		<path class="st1" d="M470.8,325.7c0,0,1.9,66.7-20.5,96.7c0,0-38.6-41.2-48.3-51C401.9,371.3,438.8,316.5,470.8,325.7z"/>
	</g>
</g>
</svg>
