<?xml version="1.0" encoding="utf-8"?>
<!-- Generator: Adobe Illustrator 21.1.0, SVG Export Plug-In . SVG Version: 6.00 Build 0)  -->
<svg version="1.1" id="nose_x2F_6" xmlns="http://www.w3.org/2000/svg" xmlns:xlink="http://www.w3.org/1999/xlink" x="0px" y="0px"
	 viewBox="0 0 700 1200" style="enable-background:new 0 0 700 1200;" xml:space="preserve">
<style type="text/css">
	.st0{fill:none;stroke:#1D1D1B;stroke-width:3;stroke-linecap:round;stroke-linejoin:round;stroke-miterlimit:10;}
</style>
<path class="st0" d="M342.8,443.4c0,0,0.3,25.9-3,28.4c-5,3.8-7.2,12.5,1.5,12.2c3.4-0.1,3.6,0.4,4.7,3.4c1,2.6,1.5,3.6,4,1.5
	c2.2-1.8,1.7-3.2,1.8-6c4.2-2.1,9.9,7,12.2-0.3c1.6-5.1-0.3-11.4-6.5-11.2c-0.2-0.2,0-0.6-0.1-0.8c-2.6-1.4-1.1-7.7-1.2-10.6
	c-0.1-5.2-0.3-10.4-0.3-15.6"/>
</svg>
