<?xml version="1.0" encoding="utf-8"?>
<!-- Generator: Adobe Illustrator 21.1.0, SVG Export Plug-In . SVG Version: 6.00 Build 0)  -->
<svg version="1.1" id="nose_x2F_8" xmlns="http://www.w3.org/2000/svg" xmlns:xlink="http://www.w3.org/1999/xlink" x="0px" y="0px"
	 viewBox="0 0 700 1200" style="enable-background:new 0 0 700 1200;" xml:space="preserve">
<style type="text/css">
	.st0{fill:none;stroke:#1D1D1B;stroke-width:3;stroke-linecap:round;stroke-linejoin:round;stroke-miterlimit:10;}
</style>
<path class="st0" d="M341.8,454.8c-1.5,1.4-2.8,2.9-4.4,4.7c-3.6,4-6.5,8.7-8.6,13.7c-1.2,3-4.5,10.4-2.5,13.6
	c1.3,2.1,4.9,2.8,7.1,3.1c7.2,1.1,14.6,0.5,21.9,1.2c4.3,0.4,9,1.3,13.3,0.7c1.7-0.3,3.3-1.2,5-1.4c0.2-2.9,1-5.5,0.8-8.6
	c-0.3-4.8-2.8-9.7-5.2-13.8c-3.3-5.7-5.6-12.4-10.1-17.3c-3.1-3.4-8.3-1.9-11.7,0C345,452,343.3,453.3,341.8,454.8z"/>
</svg>
