<?xml version="1.0" encoding="utf-8"?>
<!-- Generator: Adobe Illustrator 21.1.0, SVG Export Plug-In . SVG Version: 6.00 Build 0)  -->
<svg version="1.1" id="eye_x2F_1" xmlns="http://www.w3.org/2000/svg" xmlns:xlink="http://www.w3.org/1999/xlink" x="0px" y="0px"
	 viewBox="0 0 700 1200" style="enable-background:new 0 0 700 1200;" xml:space="preserve">
<style type="text/css">
	.st0{fill:#FFFFFF;stroke:#000000;stroke-width:3;stroke-linecap:round;stroke-linejoin:round;stroke-miterlimit:10;}
	.st1{fill:none;stroke:#000000;stroke-width:3;stroke-linecap:round;stroke-linejoin:round;stroke-miterlimit:10;}
	.st2{stroke:#000000;stroke-width:3;stroke-linecap:round;stroke-linejoin:round;stroke-miterlimit:10;}
</style>
<ellipse class="st0" cx="308" cy="420" rx="24.1" ry="33.3"/>
<path class="st1" d="M277.7,392.6c1.5,4.8,5.3,8.7,10.1,10.3"/>
<path class="st1" d="M286.7,385.7c-0.2,3.4,0.9,6.9,2.9,9.7"/>
<path class="st1" d="M294.5,380c-0.5,3.2-0.2,6.6,0.8,9.7"/>
<ellipse class="st2" cx="313.8" cy="425.7" rx="18.4" ry="22.8"/>
<ellipse class="st0" cx="391.9" cy="420" rx="24.1" ry="33.3"/>
<path class="st1" d="M422.1,392.6c-1.5,4.8-5.3,8.7-10,10.3"/>
<path class="st1" d="M413.1,385.7c0.2,3.4-0.9,6.9-2.9,9.7"/>
<path class="st1" d="M405.3,380c0.5,3.2,0.2,6.6-0.8,9.7"/>
<ellipse class="st2" cx="386.1" cy="425.7" rx="18.3" ry="22.8"/>
</svg>
