<?xml version="1.0" encoding="utf-8"?>
<!-- Generator: Adobe Illustrator 21.1.0, SVG Export Plug-In . SVG Version: 6.00 Build 0)  -->
<svg version="1.1" id="eye_x2F_3" xmlns="http://www.w3.org/2000/svg" xmlns:xlink="http://www.w3.org/1999/xlink" x="0px" y="0px"
	 viewBox="0 0 700 1200" style="enable-background:new 0 0 700 1200;" xml:space="preserve">
<style type="text/css">
	.st0{fill:#FFFFFF;stroke:#000000;stroke-width:3;stroke-linejoin:round;stroke-miterlimit:10;}
</style>
<rect x="281.7" y="402.6" class="st0" width="52.3" height="35.3"/>
<g>
	<g>
		<path d="M302.8,427.9c1.2-1.5,2.3-3.1,3.5-4.6c0.5-0.6,3.5-3.8,3.3-4.4c-0.7-0.2-1.4-0.4-2.1-0.5c0.1,0.2,0.3,0.4,0.4,0.6
			c0.1,0.6,0.9,1.3,1.2,1.9c0.9,1.6,1.7,3.2,2.3,4.9c1.9,5.4,10.6,3.1,8.7-2.4c-1.7-4.8-4.8-13.4-11-13.6c-3.1-0.1-5.3,2-7.1,4.4
			c-2.3,3.1-4.6,6.2-6.9,9.3C291.5,428,299.4,432.5,302.8,427.9L302.8,427.9z"/>
	</g>
</g>
<rect x="364.4" y="402.8" transform="matrix(-1 -1.224647e-16 1.224647e-16 -1 782.7167 840.8658)" class="st0" width="53.8" height="35.3"/>
<g>
	<g>
		<path d="M404.5,423.5c-2.2-2.9-4.5-5.8-6.7-8.7c-2-2.5-4.1-5-7.6-4.9c-6.1,0.1-9.4,8.8-11.2,13.6c-2,5.4,6.7,7.8,8.7,2.4
			c0.6-1.5,1.3-3,2.1-4.4c0.4-0.6,0.9-1.2,1.2-1.9c0.2-0.3,0.3-0.5,0.5-0.8c0.7-0.8,0.1-0.7-1.7,0.2c-0.1,0.5,2.7,3.4,3.1,3.9
			c1.3,1.7,2.6,3.4,4,5.1c1.5,1.9,3.9,2.9,6.2,1.6C404.8,428.6,406,425.5,404.5,423.5L404.5,423.5z"/>
	</g>
</g>
</svg>
