<?xml version="1.0" encoding="utf-8"?>
<!-- Generator: Adobe Illustrator 21.1.0, SVG Export Plug-In . SVG Version: 6.00 Build 0)  -->
<svg version="1.1" id="eye_x2F_4" xmlns="http://www.w3.org/2000/svg" xmlns:xlink="http://www.w3.org/1999/xlink" x="0px" y="0px"
	 viewBox="0 0 700 1200" style="enable-background:new 0 0 700 1200;" xml:space="preserve">
<style type="text/css">
	.st0{fill:none;stroke:#000000;stroke-width:3;stroke-linecap:round;stroke-linejoin:round;stroke-miterlimit:10;}
	.st1{stroke:#000000;stroke-width:3;stroke-linecap:round;stroke-linejoin:round;stroke-miterlimit:10;}
	.st2{fill:#FFFFFF;}
</style>
<path class="st0" d="M330,416.7c-6-5.9-10.7-13.6-17.5-18.5c-6.7-4.9-16.7-5.9-21.8,1.2c-4.3,6-3.1,14.7-1.3,22.1"/>
<path class="st0" d="M287.1,385.3c0.4,4.3,1.8,8.5,4,12.1"/>
<ellipse class="st1" cx="313.9" cy="430.8" rx="19.5" ry="18.9"/>
<ellipse class="st2" cx="317.4" cy="427.1" rx="8.4" ry="5.5"/>
<path class="st0" d="M370,416.7c6-5.9,10.7-13.6,17.5-18.5c6.7-4.9,16.7-5.9,21.8,1.2c4.3,6,3.1,14.7,1.3,22.1"/>
<path class="st0" d="M412.9,385.3c-0.4,4.3-1.8,8.5-4,12.1"/>
<ellipse class="st1" cx="386.1" cy="430.8" rx="19.5" ry="18.9"/>
<ellipse class="st2" cx="382.6" cy="427.1" rx="8.4" ry="5.5"/>
</svg>
