<?xml version="1.0" encoding="utf-8"?>
<!-- Generator: Adobe Illustrator 21.1.0, SVG Export Plug-In . SVG Version: 6.00 Build 0)  -->
<svg version="1.1" id="eye_x2F_9" xmlns="http://www.w3.org/2000/svg" xmlns:xlink="http://www.w3.org/1999/xlink" x="0px" y="0px"
	 viewBox="0 0 700 1200" style="enable-background:new 0 0 700 1200;" xml:space="preserve">
<style type="text/css">
	.st0{fill:#FFFFFF;stroke:#000000;stroke-width:3;stroke-linejoin:round;stroke-miterlimit:10;}
</style>
<path class="st0" d="M321.5,430.6c-4.3-0.6-8.7,0.1-12.6,2c0.2,1.9,2.7,2.4,4.6,2.4c7.4-0.1,14.9-0.1,22.3-0.2c1.2,0,2.5,0,3.5-0.6
	c1.1-0.6,1.8-2,1.2-3.1c-0.6-1.1-2.1-1.3-3.4-1.3c-5.5,0-10.9,0-16.4,0"/>
<path class="st0" d="M357.6,429.6c-2.1-0.5-4.5-1-6.4,0.1c-1.9,1-2.5,4.3-0.6,5.3c0.8,0.4,1.7,0.3,2.6,0.2
	c8.7-1.2,17.4-2.4,26.1-3.6c1.8-0.2,4-1.2,3.7-2.9c-0.3-1.5-2.3-1.7-3.8-1.6c-7.7,0.6-15.4,1.1-23.1,1.7"/>
</svg>
