<?xml version="1.0" encoding="utf-8"?>
<!-- Generator: Adobe Illustrator 21.1.0, SVG Export Plug-In . SVG Version: 6.00 Build 0)  -->
<svg version="1.1" id="top_x2F_9" xmlns="http://www.w3.org/2000/svg" xmlns:xlink="http://www.w3.org/1999/xlink" x="0px" y="0px"
	 viewBox="0 0 700 1200" style="enable-background:new 0 0 700 1200;" xml:space="preserve">
<style type="text/css">
	.st0{fill:#E42320;stroke:#000000;stroke-width:3;stroke-linecap:round;stroke-linejoin:round;stroke-miterlimit:10;}
	.st1{fill:#F2E500;stroke:#000000;stroke-width:3;stroke-linecap:round;stroke-linejoin:round;stroke-miterlimit:10;}
</style>
<g>
	<path class="st0" d="M415.1,652.8c0,0-18.4-6.6-30.9-4.9c0,0-5.3,25.3-34.1,25.3c-28.8,0-34.1-25.3-34.1-25.3
		c-12.6-1.8-30.9,4.9-30.9,4.9L221.6,699l38.7,49.2l26-17.7v110H350h63.8v-110l26,17.7l38.7-49.2L415.1,652.8z"/>
	<polygon class="st1" points="342.2,717.1 326.2,750 301.3,750 321.8,776.3 301.3,810 353.4,795.5 400.7,810 384.6,777.8 400.7,750 
		365.6,747.1 	"/>
</g>
</svg>
