<?xml version="1.0" encoding="utf-8"?>
<!-- Generator: Adobe Illustrator 21.1.0, SVG Export Plug-In . SVG Version: 6.00 Build 0)  -->
<svg version="1.1" id="top_x2F_3" xmlns="http://www.w3.org/2000/svg" xmlns:xlink="http://www.w3.org/1999/xlink" x="0px" y="0px"
	 viewBox="0 0 700 1200" style="enable-background:new 0 0 700 1200;" xml:space="preserve">
<style type="text/css">
	.st0{fill:#2AA84B;stroke:#1D1D1B;stroke-width:3;stroke-linecap:round;stroke-linejoin:round;stroke-miterlimit:10;}
	.st1{fill:#F2E500;stroke:#1D1D1B;stroke-width:3;stroke-linecap:round;stroke-linejoin:round;stroke-miterlimit:10;}
	.st2{fill:#E42320;stroke:#1D1D1B;stroke-width:3;stroke-miterlimit:10;}
</style>
<g>
	<path class="st0" d="M381.5,695.2v-45.9l-7-0.9v44.2c0,0-2.7,14.8-22.5,15.3h-4c-19.8-0.5-22.5-15.3-22.5-15.3v-44.2l-7,0.9v45.9
		c-4.4,23.3-31.5,35-31.5,35v6.6v3.5h47.3H350h0h12.2H413v-3.5v-6.6C413,730.2,385.9,718.6,381.5,695.2z"/>
	<path class="st1" d="M378.7,704.5c0,0-7.1,10.8-28.7,10.8h0c-21.6,0-28.7-10.8-28.7-10.8c-1.8,18-34.3,33.4-34.3,33.4v101.8h51.6
		H350h0h14.9h48V737.8C413,737.8,380.5,722.5,378.7,704.5z"/>
	<polygon class="st2" points="343.5,734.4 331.5,762.7 313,762.7 328.3,785.3 313,814.1 351.8,801.7 387,814.1 375,786.5 387,762.7 
		360.9,760.2 	"/>
</g>
</svg>
