<?xml version="1.0" encoding="utf-8"?>
<!-- Generator: Adobe Illustrator 21.1.0, SVG Export Plug-In . SVG Version: 6.00 Build 0)  -->
<svg version="1.1" id="top_x2F_4" xmlns="http://www.w3.org/2000/svg" xmlns:xlink="http://www.w3.org/1999/xlink" x="0px" y="0px"
	 viewBox="0 0 700 1200" style="enable-background:new 0 0 700 1200;" xml:space="preserve">
<style type="text/css">
	.st0{fill:#A55299;stroke:#1D1D1B;stroke-width:3;stroke-miterlimit:10;}
	.st1{fill:#C889BB;stroke:#1D1D1B;stroke-width:3;stroke-miterlimit:10;}
	.st2{fill:#E62380;stroke:#1D1D1B;stroke-width:3;stroke-miterlimit:10;}
	.st3{fill:#E4281F;stroke:#1D1D1B;stroke-width:3;stroke-miterlimit:10;}
</style>
<g>
	<path class="st0" d="M382.8,696.5v-47.8l-7.2-0.9v46c0,0-2.8,15.4-23.4,15.9h-4.2c-20.6-0.5-23.4-15.9-23.4-15.9v-46l-7.2,0.9v47.8
		c-4.6,24.3-32.8,36.4-32.8,36.4v6.9v3.7h49.2H350h0h12.7h52.8v-3.7v-6.9C415.5,732.9,387.4,720.8,382.8,696.5z"/>
	<path class="st1" d="M379.9,706.2c0,0-7.3,11.6-29.9,11.6h0c-22.5,0-29.9-11.6-29.9-11.6c-1.9,19.4-35.7,36-35.7,36v98.1h53.7H350
		h0h15.5h50v-98.1C415.5,742.1,381.7,725.5,379.9,706.2z"/>
	<polygon class="st2" points="313.4,846.8 302.6,846.8 302.6,650.9 313.4,647.8 	"/>
	<polygon class="st2" points="386.4,846.8 397.2,846.8 397.2,650.9 386.4,647.8 	"/>
	<path class="st3" d="M306.1,856.6c0,0-12.6-9.9-10.2-19.1c0,0,1.8-9.9,10.2,0c0,0,13.2-14.8,15.1-0.6
		C321.2,836.9,319.9,851.7,306.1,856.6z"/>
	<path class="st3" d="M389.5,855.6c0,0-12.6-9.9-10.2-19.1c0,0,1.8-9.9,10.2,0c0,0,13.2-14.8,15.1-0.6
		C404.6,835.9,403.3,850.7,389.5,855.6z"/>
</g>
</svg>
