<?xml version="1.0" encoding="utf-8"?>
<!-- Generator: Adobe Illustrator 21.1.0, SVG Export Plug-In . SVG Version: 6.00 Build 0)  -->
<svg version="1.1" id="top_x2F_5" xmlns="http://www.w3.org/2000/svg" xmlns:xlink="http://www.w3.org/1999/xlink" x="0px" y="0px"
	 viewBox="0 0 700 1200" style="enable-background:new 0 0 700 1200;" xml:space="preserve">
<style type="text/css">
	.st0{fill:#3B73B8;stroke:#1D1D1B;stroke-width:3;stroke-linecap:round;stroke-linejoin:round;stroke-miterlimit:10;}
	.st1{fill:#6DC5D8;stroke:#1D1D1B;stroke-width:3;stroke-linecap:round;stroke-linejoin:round;stroke-miterlimit:10;}
	.st2{fill:#E62380;stroke:#1D1D1B;stroke-width:3;stroke-linecap:round;stroke-linejoin:round;stroke-miterlimit:10;}
	.st3{fill:#E4281F;stroke:#1D1D1B;stroke-width:3;stroke-linecap:round;stroke-linejoin:round;stroke-miterlimit:10;}
</style>
<g>
	<path class="st0" d="M382.4,694.3v-45.9l-7.2-0.9v44.2c0,0-2.8,14.8-23.2,15.3h-4.1c-20.4-0.5-23.2-15.3-23.2-15.3v-44.2l-7.2,0.9
		v45.9c-4.6,23.3-32.4,35-32.4,35v6.6v3.5h48.6H350h0h12.6h52.2v-3.5v-6.6C414.7,729.3,386.9,717.6,382.4,694.3z"/>
	<path class="st1" d="M379.5,703.5c0,0-7.3,10.8-29.5,10.8h0c-22.3,0-29.5-10.8-29.5-10.8c-1.8,18-35.2,33.4-35.2,33.4v41.5h53.1
		H350h0h15.4h49.4v-41.5C414.7,736.9,381.4,721.5,379.5,703.5z"/>
	<polygon class="st2" points="313.8,838.7 303.1,838.7 303.1,650.5 313.8,647.5 	"/>
	<polygon class="st2" points="385.8,838.7 396.5,838.7 396.5,650.5 385.8,647.5 	"/>
	<path class="st3" d="M306.5,848.1c0,0-12.5-9.5-10-18.3c0,0,1.8-9.5,10,0c0,0,13.1-14.2,14.9-0.6
		C321.4,829.2,320.2,843.4,306.5,848.1z"/>
	<path class="st3" d="M388.9,847.1c0,0-12.5-9.5-10-18.3c0,0,1.8-9.5,10,0c0,0,13.1-14.2,14.9-0.6
		C403.8,828.2,402.6,842.4,388.9,847.1z"/>
</g>
</svg>
