<?xml version="1.0" encoding="utf-8"?>
<!-- Generator: Adobe Illustrator 21.1.0, SVG Export Plug-In . SVG Version: 6.00 Build 0)  -->
<svg version="1.1" id="top_x2F_6" xmlns="http://www.w3.org/2000/svg" xmlns:xlink="http://www.w3.org/1999/xlink" x="0px" y="0px"
	 viewBox="0 0 700 1200" style="enable-background:new 0 0 700 1200;" xml:space="preserve">
<style type="text/css">
	.st0{fill:#09050D;stroke:#1D1D1B;stroke-width:3;stroke-miterlimit:10;}
	.st1{fill:#282E68;stroke:#1D1D1B;stroke-width:3;stroke-linecap:round;stroke-linejoin:round;stroke-miterlimit:10;}
	.st2{fill:#F6E71F;stroke:#1D1D1B;stroke-width:3;stroke-miterlimit:10;}
</style>
<g>
	<path class="st0" d="M367.9,713.5c0-35.2,36.4-59.2,36.4-59.2l-7.6-3.5c-14.1,8-24.7,25.4-24.7,25.4c-9.5,19.2-16.2,23.6-19.5,24.5
		h-4.9c-3.4-0.9-10.1-5.3-19.5-24.5c0,0-10.6-17.4-24.7-25.4l-7.6,3.5c0,0,36.4,23.9,36.4,59.2s-24.3,66.4-46.8,61.6v53.7h51.7H350
		h9.1h55.7v-53.7C392.2,779.9,367.9,748.7,367.9,713.5z"/>
	<polygon class="st1" points="314,839 303.3,839 303.3,650.8 314,647.8 	"/>
	<polygon class="st1" points="386,839 396.7,839 396.7,650.8 386,647.8 	"/>
	<ellipse class="st2" cx="391.4" cy="837.2" rx="10.2" ry="11.9"/>
	<ellipse class="st2" cx="308.6" cy="837.2" rx="10.2" ry="11.9"/>
</g>
</svg>
