<?xml version="1.0" encoding="utf-8"?>
<!-- Generator: Adobe Illustrator 21.1.0, SVG Export Plug-In . SVG Version: 6.00 Build 0)  -->
<svg version="1.1" id="shoe_x2F_11" xmlns="http://www.w3.org/2000/svg" xmlns:xlink="http://www.w3.org/1999/xlink" x="0px"
	 y="0px" viewBox="0 0 700 1200" style="enable-background:new 0 0 700 1200;" xml:space="preserve">
<style type="text/css">
	.st0{fill:#0A997D;stroke:#1D1D1B;stroke-width:3;stroke-linecap:round;stroke-linejoin:round;stroke-miterlimit:10;}
	.st1{fill:#FFFFFF;stroke:#1D1D1B;stroke-width:3;stroke-linecap:round;stroke-linejoin:round;stroke-miterlimit:10;}
</style>
<g>
	<g>
		<path class="st0" d="M338.1,1090.9c-0.7,4.3-9.3,15.7-29.3,20.7c-18.7,4.7-33.7-13.8-35.5-16.2c-1.9,21.8-0.3,56.5,28.8,56.5
			c37.7,0,42.2-8.1,42.2-28.1C344.3,1115.7,339.1,1099.5,338.1,1090.9C338.1,1090.9,338.1,1090.9,338.1,1090.9z"/>
		<path class="st1" d="M334.2,1059.6L334.2,1059.6L334.2,1059.6c-0.8-12,1.6-24.1,1.6-24.1l-57.8-1.6l-1.5,28.1
			C312.6,1044.7,334.2,1059.6,334.2,1059.6z"/>
		<path class="st1" d="M336.4,1078.1c-21.6-15.3-60.7,0.2-60.7,0.2l0,0l0,0c0,0-1.6,7.2-2.4,17.2c1.8,2.4,16.8,20.9,35.5,16.2
			c20-5,28.6-16.4,29.3-20.7c0,0,0,0,0,0C337.6,1086.5,337,1082.2,336.4,1078.1z"/>
		<path class="st0" d="M336.4,1078.1c-1-7.4-1.9-13.9-2.2-18.5l0,0c0,0-21.6-14.9-57.7,2.4l-0.9,16.2l0,0
			C275.7,1078.3,314.8,1062.8,336.4,1078.1z"/>
	</g>
	<g>
		<path class="st0" d="M369.7,1090.9c0.7,4.3,9.3,15.7,29.3,20.7c18.7,4.7,33.7-13.8,35.5-16.2c1.9,21.8,0.3,56.5-28.8,56.5
			c-37.7,0-42.2-8.1-42.2-28.1C363.5,1115.7,368.7,1099.5,369.7,1090.9C369.7,1090.9,369.7,1090.9,369.7,1090.9z"/>
		<path class="st1" d="M373.5,1059.6L373.5,1059.6L373.5,1059.6c0.8-12-1.6-24.1-1.6-24.1l57.8-1.6l1.5,28.1
			C395.2,1044.7,373.5,1059.6,373.5,1059.6z"/>
		<path class="st1" d="M371.3,1078.1c21.6-15.3,60.7,0.2,60.7,0.2l0,0l0,0c0,0,1.6,7.2,2.4,17.2c-1.8,2.4-16.8,20.9-35.5,16.2
			c-20-5-28.6-16.4-29.3-20.7c0,0,0,0,0,0C370.2,1086.5,370.8,1082.2,371.3,1078.1z"/>
		<path class="st0" d="M371.3,1078.1c1-7.4,1.9-13.9,2.2-18.5l0,0c0,0,21.6-14.9,57.7,2.4l0.9,16.2l0,0
			C432.1,1078.3,393,1062.8,371.3,1078.1z"/>
	</g>
</g>
</svg>
