<?xml version="1.0" encoding="utf-8"?>
<!-- Generator: Adobe Illustrator 21.1.0, SVG Export Plug-In . SVG Version: 6.00 Build 0)  -->
<svg version="1.1" id="shoe_x2F_1" xmlns="http://www.w3.org/2000/svg" xmlns:xlink="http://www.w3.org/1999/xlink" x="0px" y="0px"
	 viewBox="0 0 700 1200" style="enable-background:new 0 0 700 1200;" xml:space="preserve">
<style type="text/css">
	.st0{fill:#FFFFFF;stroke:#1D1D1B;stroke-width:3;stroke-linecap:round;stroke-linejoin:round;stroke-miterlimit:10;}
	.st1{fill:#ABFF08;stroke:#1D1D1B;stroke-width:3;stroke-miterlimit:10;}
</style>
<g>
	<path class="st0" d="M374.6,1040.8h55.2l-2.4-28.6H372C372.9,1021.9,373.8,1031.5,374.6,1040.8z"/>
	<path class="st1" d="M369.4,983.7c0.8,9.4,1.7,19,2.6,28.6h55.4l-2.4-28.6H369.4z"/>
	<path class="st0" d="M272.4,1111.4h57c0,0,1.4-17.6,3.2-42h-57.2C274,1091.4,272.4,1111.4,272.4,1111.4z"/>
	<path class="st1" d="M377.2,1069.3h55l-2.4-28.6h-55.2C375.6,1050.9,376.4,1060.6,377.2,1069.3z"/>
	<path class="st0" d="M381.2,1109.2h54.4l-3.4-39.9h-55C379.3,1091.9,380.9,1107.9,381.2,1109.2z"/>
	<path class="st1" d="M277,1040.8c0,0.7-0.1,1.4-0.1,2c-0.4,8.4-0.9,17.6-1.5,26.5h57.2c0.7-8.8,1.4-18.5,2.2-28.6H277z"/>
	<path class="st1" d="M339,983.7h-59.2c-0.5,10.3-1,20-1.4,28.6h58.6C337.6,1002.5,338.3,992.8,339,983.7z"/>
	<path class="st0" d="M336.9,1012.2h-58.6c-0.6,12.5-1.1,22.5-1.4,28.6h57.8C335.5,1031.4,336.2,1021.8,336.9,1012.2z"/>
	<path class="st0" d="M369.4,983.7H425l-2.4-28.6h-55.7C367.7,964.1,368.5,973.7,369.4,983.7z"/>
	<path class="st0" d="M341,955.1h-59.8c-0.5,9.8-1,19.4-1.4,28.6H339C339.8,973.3,340.4,963.6,341,955.1z"/>
	<g>
		<path class="st1" d="M271.9,1082.1c0,0-28.5-5-42.1,13.6c-6.7,9.2-10.1,17.1-11.8,24.1c-1.7,7.1-1.7,13.4-1.7,19.4
			c0,0,63.5,12.9,118.4,0c0,0,0.7-7.6,0.9-17.7c0.2-12.1-0.5-27.8-4.4-37.9C331.1,1083.5,299,1101.4,271.9,1082.1z"/>
		<path class="st1" d="M490.1,1119.8c-1.7-7-5.1-14.9-11.8-24.1c-13.6-18.5-42.1-13.6-42.1-13.6c-27.1,19.3-59.2,1.4-59.2,1.4
			c-3.9,10.1-4.6,25.8-4.4,37.9c0.1,10.1,0.9,17.7,0.9,17.7c54.9,12.9,118.4,0,118.4,0C491.8,1133.1,491.8,1126.8,490.1,1119.8z"/>
	</g>
</g>
</svg>
