<?xml version="1.0" encoding="utf-8"?>
<!-- Generator: Adobe Illustrator 21.1.0, SVG Export Plug-In . SVG Version: 6.00 Build 0)  -->
<svg version="1.1" id="shoe_x2F_10" xmlns="http://www.w3.org/2000/svg" xmlns:xlink="http://www.w3.org/1999/xlink" x="0px"
	 y="0px" viewBox="0 0 700 1200" style="enable-background:new 0 0 700 1200;" xml:space="preserve">
<style type="text/css">
	.st0{fill:#9D529A;stroke:#1D1D1B;stroke-width:3;stroke-miterlimit:10;}
	.st1{fill:#564595;stroke:#1D1D1B;stroke-width:3;stroke-miterlimit:10;}
	.st2{fill:#E42320;stroke:#1D1D1B;stroke-width:3;stroke-miterlimit:10;}
	.st3{fill:#CB8EBE;stroke:#1D1D1B;stroke-width:3;stroke-miterlimit:10;}
	.st4{fill:#C7B1D6;stroke:#1D1D1B;stroke-width:3;stroke-miterlimit:10;}
</style>
<g>
	<g>
		<path class="st0" d="M273.2,1095.8c0,0-4.3,30.5,2.8,48.5c7.1,18,21.9,19.1,42,17.7c20.1-1.4,27.6-15.2,26.5-32.9
			c-1.1-17.7-6.5-37.9-6.5-37.9l-63.4,4.7L273.2,1095.8z"/>
		<path class="st1" d="M276.3,1066.9l-0.1,0.1l-0.6,11.6c0,0-1.6,7.2-2.4,17.2c-1.1,12.2-1,28.6,4.4,40.5l0.6-0.8
			c0,0-2.4-28.9,37.9-27.7c20.5,0.6,26.8,9,28.1,17.1c0-0.2,0-0.5,0-0.7c0-8.2-5.2-24.4-6.2-33c-0.5-4.4-1.1-8.7-1.6-12.8
			c-0.8-5.8-1.5-11.1-1.9-15.3l-0.3,0.1c0,0-14.6,10.9-57.9,3.7"/>
		<path class="st0" d="M326.5,1109c-1.6-0.3-3.3-0.6-5.2-0.8c-1.6-0.2-3.4-0.3-5.3-0.4c-40.3-1.2-37.9,27.7-37.9,27.7l-0.6,0.8
			c4.2,9.3,11.7,16,24.5,16c37.2,0,42-7.9,42.2-27.4C343.1,1118.4,338.8,1111.7,326.5,1109z"/>
		<path class="st2" d="M276.2,1067"/>
		<path class="st2" d="M276.2,1067"/>
		<path class="st3" d="M293.7,1087.7c0,0,0,16.1,4,19.7c4,3.6,24.7,7.1,30.3,0.9c0,0,3.3-8.6,1.4-20.5l-0.8-3L293.7,1087.7z"/>
		<path class="st0" d="M297.8,1097l1.2,5c0,0,18.8,3.7,27.1-0.5l0.6-5.7C326.7,1095.8,317,1099,297.8,1097z"/>
		<path class="st4" d="M272.5,1104.5c0,0,13.8-16.5,27.2-13.5c0,0,5.2,9.5,17.1,6.7c9.4-2.2,10.2-9.6,10.2-9.6s7.2-2,12.4,9.1
			l-3-18.7c0,0-7.7-3.9-10.7-3.1c0,0-13.6-14.6-26.9,2.1c0,0-13.9-2.1-24.3,9.1L272.5,1104.5z"/>
		<path class="st0" d="M303.1,1082.6c0.5-4,4.5-10.2,12.1-8s7.7,7,7.7,9.9s-4.2,8-9.6,8C307.9,1092.5,302.4,1088.1,303.1,1082.6z"/>
	</g>
	<g>
		<path class="st0" d="M434.8,1095.8c0,0,4.3,30.5-2.8,48.5c-7.1,18-21.9,19.1-42,17.7c-20.1-1.4-27.6-15.2-26.5-32.9
			c1.1-17.7,6.5-37.9,6.5-37.9l63.4,4.7L434.8,1095.8z"/>
		<path class="st1" d="M431.7,1066.9l0.1,0.1l0.6,11.6c0,0,1.6,7.2,2.4,17.2c1.1,12.2,1,28.6-4.4,40.5l-0.6-0.8
			c0,0,2.4-28.9-37.9-27.7c-20.5,0.6-26.8,9-28.1,17.1c0-0.2,0-0.5,0-0.7c0-8.2,5.2-24.4,6.2-33c0.5-4.4,1.1-8.7,1.6-12.8
			c0.8-5.8,1.5-11.1,1.9-15.3l0.3,0.1c0,0,14.6,10.9,57.9,3.7"/>
		<path class="st0" d="M381.5,1109c1.6-0.3,3.3-0.6,5.2-0.8c1.6-0.2,3.4-0.3,5.3-0.4c40.3-1.2,37.9,27.7,37.9,27.7l0.6,0.8
			c-4.2,9.3-11.7,16-24.5,16c-37.2,0-42-7.9-42.2-27.4C364.9,1118.4,369.2,1111.7,381.5,1109z"/>
		<path class="st2" d="M431.8,1067"/>
		<path class="st2" d="M431.8,1067"/>
		<path class="st3" d="M414.3,1087.7c0,0,0,16.1-4,19.7c-4,3.6-24.7,7.1-30.3,0.9c0,0-3.3-8.6-1.4-20.5l0.8-3L414.3,1087.7z"/>
		<path class="st0" d="M410.2,1097l-1.2,5c0,0-18.8,3.7-27.1-0.5l-0.6-5.7C381.3,1095.8,391,1099,410.2,1097z"/>
		<path class="st4" d="M435.5,1104.5c0,0-13.8-16.5-27.2-13.5c0,0-5.2,9.5-17.1,6.7c-9.4-2.2-10.2-9.6-10.2-9.6s-7.2-2-12.4,9.1
			l3-18.7c0,0,7.7-3.9,10.7-3.1c0,0,13.6-14.6,26.9,2.1c0,0,13.9-2.1,24.3,9.1L435.5,1104.5z"/>
		<path class="st0" d="M404.9,1082.6c-0.5-4-4.5-10.2-12.1-8s-7.7,7-7.7,9.9s4.2,8,9.6,8C400.1,1092.5,405.6,1088.1,404.9,1082.6z"
			/>
	</g>
</g>
</svg>
