<?xml version="1.0" encoding="utf-8"?>
<!-- Generator: Adobe Illustrator 21.1.0, SVG Export Plug-In . SVG Version: 6.00 Build 0)  -->
<svg version="1.1" id="shoe_x2F_2" xmlns="http://www.w3.org/2000/svg" xmlns:xlink="http://www.w3.org/1999/xlink" x="0px" y="0px"
	 viewBox="0 0 700 1200" style="enable-background:new 0 0 700 1200;" xml:space="preserve">
<style type="text/css">
	.st0{fill:#FFFFFF;stroke:#1D1D1B;stroke-width:3;stroke-linecap:round;stroke-linejoin:round;stroke-miterlimit:10;}
	.st1{fill:#E42320;stroke:#1D1D1B;stroke-width:3;stroke-linecap:round;stroke-linejoin:round;stroke-miterlimit:10;}
</style>
<g>
	<g>
		<path class="st0" d="M226,1144.6c0,0,45.7,32.7,105.7,2C331.7,1146.7,283.2,1104.4,226,1144.6z"/>
		<path class="st1" d="M278.5,966.7l-6.8,124.8c-53.9-3.4-45.7,53.2-45.7,53.2c57.3-40.2,105.7,2,105.7,2l4.8-59.3l8.9-118.7
			L278.5,966.7z"/>
	</g>
	<g>
		<path class="st0" d="M481.9,1144.6c0,0-45.7,32.7-105.7,2C376.2,1146.7,424.6,1104.4,481.9,1144.6z"/>
		<path class="st1" d="M429.4,966.7l6.8,124.8c53.9-3.4,45.7,53.2,45.7,53.2c-57.3-40.2-105.7,2-105.7,2l-4.8-59.3l-8.9-118.7
			L429.4,966.7z"/>
	</g>
</g>
</svg>
