<?xml version="1.0" encoding="utf-8"?>
<!-- Generator: Adobe Illustrator 21.1.0, SVG Export Plug-In . SVG Version: 6.00 Build 0)  -->
<svg version="1.1" id="shoe_x2F_3" xmlns="http://www.w3.org/2000/svg" xmlns:xlink="http://www.w3.org/1999/xlink" x="0px" y="0px"
	 viewBox="0 0 700 1200" style="enable-background:new 0 0 700 1200;" xml:space="preserve">
<style type="text/css">
	.st0{fill:#C64847;stroke:#1D1D1B;stroke-width:3;stroke-miterlimit:10;}
</style>
<g>
	<path class="st0" d="M272.8,1084.5c0,0-28.5-5-42.1,13.6c-6.7,9.2-10.1,17.1-11.8,24.1c-1.7,7.1-1.7,13.4-1.7,19.4
		c0,0,63.5,12.9,118.4,0c0,0,0.7-7.6,0.9-17.7c0.2-12.1-0.5-27.8-4.4-37.9C332,1085.9,299.9,1103.8,272.8,1084.5z"/>
	<path class="st0" d="M491,1122.1c-1.7-7-5.1-14.9-11.8-24.1c-13.6-18.5-42.1-13.6-42.1-13.6c-27.1,19.3-59.2,1.4-59.2,1.4
		c-3.9,10.1-4.6,25.8-4.4,37.9c0.1,10.1,0.9,17.7,0.9,17.7c54.9,12.9,118.4,0,118.4,0C492.7,1135.5,492.7,1129.2,491,1122.1z"/>
</g>
</svg>
