<?xml version="1.0" encoding="utf-8"?>
<!-- Generator: Adobe Illustrator 21.1.0, SVG Export Plug-In . SVG Version: 6.00 Build 0)  -->
<svg version="1.1" id="shoes_x2F_4" xmlns="http://www.w3.org/2000/svg" xmlns:xlink="http://www.w3.org/1999/xlink" x="0px"
	 y="0px" viewBox="0 0 700 1200" style="enable-background:new 0 0 700 1200;" xml:space="preserve">
<style type="text/css">
	.st0{fill:#FCD4A3;stroke:#1D1D1B;stroke-width:3;stroke-linecap:round;stroke-linejoin:round;stroke-miterlimit:10;}
</style>
<g>
	<path class="st0" d="M274.9,1077l-1.3,18.1h-0.1c-0.1,0.8-0.1,1.6-0.2,2.3c-7.2,3.4-27.7,4.8-31,4.8c0,0-10.9-9.3-12.7-0.1
		c0,0,0.1,9,9.3,11.5c-3.5-0.3-8.5,0.3-9.3,5.5c-0.7,4.6,7.8,4.1,12.1,3.6c-3.3,0.7-8.7,2.7-6.9,8.1c2.6,7.6,16.9-3.1,16.9-3.1
		s-6.9,5.3-8.2,8c-1.3,2.7,3.5,6,9.1,2.7c5.6-3.3,2.6-0.7,2.6-0.7s-5.2,5.7,1.3,5.7c6.5,0,8.7-5,8.7-5s8.7,12.7,60.8-4
		c16.4-5.3,12.9-29,4.3-35.5c0.1-1.2,0.2-2.4,0.3-3.8h-0.1l1.7-21.7"/>
	<path class="st0" d="M377.4,1068.9l2.6,26.1h-0.9c-16.5,28.9,4.6,39.3,4.6,39.3c50.1,16.7,58.5,4,58.5,4s2.1,5,8.3,5
		s1.3-5.7,1.3-5.7s-2.9-2.6,2.5,0.7s10,0,8.8-2.7c-1.3-2.7-7.9-8-7.9-8s13.7,10.7,16.2,3.1c1.8-5.4-3.4-7.4-6.6-8.1
		c4.2,0.5,12.3,1,11.6-3.6c-0.8-5.3-5.6-5.8-9-5.5c8.9-2.5,9-11.5,9-11.5c-1.7-9.1-12.2,0.1-12.2,0.1c-3.1,0-21.9-1.3-29.3-4.6
		c0,0,0,0-0.1,0l-0.2-2.5L432,1064"/>
</g>
</svg>
