<?xml version="1.0" encoding="utf-8"?>
<!-- Generator: Adobe Illustrator 21.1.0, SVG Export Plug-In . SVG Version: 6.00 Build 0)  -->
<svg version="1.1" id="shoe_x2F_5" xmlns="http://www.w3.org/2000/svg" xmlns:xlink="http://www.w3.org/1999/xlink" x="0px" y="0px"
	 viewBox="0 0 700 1200" style="enable-background:new 0 0 700 1200;" xml:space="preserve">
<style type="text/css">
	.st0{fill:#E42320;stroke:#1D1D1B;stroke-width:3;stroke-miterlimit:10;}
	.st1{fill:#FCD4A3;stroke:#1D1D1B;stroke-width:3;stroke-miterlimit:10;}
	.st2{fill:#294B9A;stroke:#1D1D1B;stroke-width:3;stroke-miterlimit:10;}
</style>
<g>
	<g>
		<path class="st0" d="M486.8,1121.9l-0.8,17.3c0,0-3.3,17.2-28,20.5c-24.7,3.3-76.6,0.4-89.1-18.4c0,0-5-11.3-2.9-25.1
			L486.8,1121.9z"/>
		<path class="st0" d="M466.8,1110.1c0,0,19.2-4.7,20,11.8c0.8,16.6-19.2,30.8-47.9,30c-28.7-0.8-74.2-4.7-74.2-30.8
			s48.7-15.8,63.9-13.4S466.8,1110.1,466.8,1110.1z"/>
	</g>
	<g>
		<path class="st0" d="M223.7,1121.9l0.8,17.3c0,0,3.3,17.2,28,20.5c24.7,3.3,76.6,0.4,89.1-18.4c0,0,5-11.3,2.9-25.1L223.7,1121.9z
			"/>
		<path class="st0" d="M243.7,1110.1c0,0-19.2-4.7-20,11.8c-0.8,16.6,19.2,30.8,47.9,30s74.2-4.7,74.2-30.8s-48.7-15.8-63.9-13.4
			C266.8,1110.1,243.7,1110.1,243.7,1110.1z"/>
	</g>
	<g>
		<path class="st1" d="M275.1,1071.6c-0.7,10.3-1.4,19.9-1.9,27c-7.2,3.4-27.7,4.8-31,4.8c0,0-10.9-9.3-12.7-0.1c0,0,0.1,9,9.3,11.5
			c-3.5-0.3-8.5,0.3-9.3,5.5c-0.7,4.6,7.8,4.1,12.1,3.6c-3.3,0.7-8.7,2.7-6.9,8.1c2.6,7.6,16.9-3.1,16.9-3.1s-6.9,5.3-8.2,8
			c-1.3,2.7,3.5,6,9.1,2.7c5.6-3.3,2.6-0.7,2.6-0.7s-5.2,5.7,1.3,5.7s8.7-5,8.7-5s8.7,12.7,60.8-4c16.4-5.3,12.9-29.1,4.2-35.6
			c0.5-6.9,1.3-16.8,2.2-28.4"/>
		<path class="st1" d="M377.5,1071.6c0.9,9.3,1.6,17.3,2.2,23.5c-17.8,29.9,3.9,40.5,3.9,40.5c50.1,16.7,58.5,4,58.5,4s2.1,5,8.3,5
			s1.3-5.7,1.3-5.7s-2.9-2.6,2.5,0.7c5.4,3.3,10,0,8.8-2.7c-1.3-2.7-7.9-8-7.9-8s13.7,10.7,16.2,3.1c1.8-5.4-3.4-7.4-6.6-8.1
			c4.2,0.5,12.3,1,11.6-3.6c-0.8-5.3-5.6-5.8-9-5.5c8.9-2.5,9-11.5,9-11.5c-1.7-9.1-12.2,0.1-12.2,0.1c-3.1,0-22-1.3-29.3-4.6
			l-2.3-27.2"/>
	</g>
	<path class="st2" d="M242.2,1103.5c0,0,25.5,19.1,23.3,47.5c0,0,35.3,1,41.3-2.3c0,0,0-38.2-33.6-50
		C273.2,1098.7,255.8,1097.1,242.2,1103.5z"/>
	<path class="st2" d="M464,1103.5c0,0-25.5,19.1-23.3,47.5c0,0-35.3,1-41.3-2.3c0,0,0-38.2,33.6-50
		C433,1098.7,450.4,1097.1,464,1103.5z"/>
</g>
</svg>
