<?xml version="1.0" encoding="utf-8"?>
<!-- Generator: Adobe Illustrator 21.1.0, SVG Export Plug-In . SVG Version: 6.00 Build 0)  -->
<svg version="1.1" id="shoe_x2F_6" xmlns="http://www.w3.org/2000/svg" xmlns:xlink="http://www.w3.org/1999/xlink" x="0px" y="0px"
	 viewBox="0 0 700 1200" style="enable-background:new 0 0 700 1200;" xml:space="preserve">
<style type="text/css">
	.st0{fill:#E42320;stroke:#1D1D1B;stroke-width:3;stroke-miterlimit:10;}
	.st1{fill:#FFFFFF;stroke:#1D1D1B;stroke-width:3;stroke-miterlimit:10;}
	.st2{fill:#EE7D80;stroke:#1D1D1B;stroke-width:3;stroke-miterlimit:10;}
</style>
<g>
	<g>
		<rect x="273.3" y="1054.3" class="st0" width="60.6" height="51.9"/>
		<path class="st0" d="M303.5,1089.2c0,0,42.1-2.6,38.2,40.1l0.3,12.7h-78v-17.3C264,1124.7,256.1,1086.1,303.5,1089.2z"/>
		<rect x="263.5" y="1129.3" class="st1" width="78.2" height="20.8"/>
		<polygon class="st2" points="339.2,1037 339.4,1074.3 309.9,1074.3 305.2,1059.4 299.4,1074.3 269.7,1074.3 269.7,1037 		"/>
	</g>
	<g>
		<rect x="374.1" y="1054.3" class="st0" width="60.6" height="51.9"/>
		<path class="st0" d="M404.3,1089.2c0,0-42.1-2.6-38.2,40.1l-0.3,12.7h78v-17.3C443.9,1124.7,451.8,1086.1,404.3,1089.2z"/>
		<rect x="366.2" y="1129.3" class="st1" width="78.2" height="20.8"/>
		<polygon class="st2" points="369.4,1037 369.2,1074.3 397.9,1074.3 402.4,1059.4 408.1,1074.3 437.1,1074.3 437.1,1037 		"/>
	</g>
</g>
</svg>
