<?xml version="1.0" encoding="utf-8"?>
<!-- Generator: Adobe Illustrator 21.1.0, SVG Export Plug-In . SVG Version: 6.00 Build 0)  -->
<svg version="1.1" id="shoe_x2F_8" xmlns="http://www.w3.org/2000/svg" xmlns:xlink="http://www.w3.org/1999/xlink" x="0px" y="0px"
	 viewBox="0 0 700 1200" style="enable-background:new 0 0 700 1200;" xml:space="preserve">
<style type="text/css">
	.st0{fill:#FFFFFF;stroke:#1D1D1B;stroke-width:3;stroke-linecap:round;stroke-linejoin:round;stroke-miterlimit:10;}
	.st1{fill:#E42320;stroke:#1D1D1B;stroke-width:3;stroke-miterlimit:10;}
</style>
<g>
	<g>
		<path class="st0" d="M273.4,1091.7c0,0-4.3,30.5,2.8,48.5s21.9,19.1,42,17.7s27.6-15.2,26.5-32.9c-1.1-17.7-6.5-37.9-6.5-37.9
			l-63.4,4.7L273.4,1091.7z"/>
		<path class="st1" d="M323.5,1088.7c0,0,0.6-22.9,1.2-30.7s-1.8-11.4-1.8-11.4s-24.7-3.6-27.1,1.8c-2.4,5.4,1.2,39.7,1.2,39.7
			L323.5,1088.7z"/>
		<path class="st1" d="M316.3,1103.7c20.5,0.6,26.8,9,28.1,17.1c0-0.2,0-0.5,0-0.7c0-8.2-5.2-24.4-6.2-33c-0.5-4.4-1.1-8.7-1.6-12.8
			c-0.8-5.8-1.5-11.1-1.9-15.3l-0.3,0.1c0.6,13.2-2.4,17.4-2.4,17.4c-6.6,4.8-50.5,2.4-51.1-4.8c-0.6-7.2-4.2-9-4.2-9l-0.1,0.1
			l-0.6,11.6c0,0-1.6,7.2-2.4,17.2c-1.1,12.2-1,28.6,4.4,40.5l0.6-0.8C278.4,1131.4,276,1102.5,316.3,1103.7z"/>
		<path class="st0" d="M322.1,1077.1l-19.9,2.8v23.9c0,0,11.1-1.3,19.3,0.3c1.9,0.2,3.6,0.5,5.2,0.8L322.1,1077.1z"/>
		<path class="st0" d="M326.7,1104.9c-1.6-0.3-3.3-0.6-5.2-0.8c-1.6-0.2-3.4-0.3-5.3-0.4c-40.3-1.2-37.9,27.7-37.9,27.7l-0.6,0.8
			c4.2,9.3,11.7,16,24.5,16c37.2,0,42-7.9,42.2-27.4C343.3,1114.3,339,1107.6,326.7,1104.9z"/>
		<path class="st0" d="M307.2,1071.3c0,0-9.6-10.2-19.3-4.8s-7.2,18.6,0.6,18.6c7.8,0,19.9-4.2,19.9-4.2L307.2,1071.3z"/>
		<path class="st0" d="M307.2,1075.5c0,0-14.4-3-18.6,0"/>
		<path class="st0" d="M307.2,1071.3c0,0,7.2-1.8,12-0.6v10.2h-10.8L307.2,1071.3z"/>
		<path class="st0" d="M319.3,1070.7c0,0,6.6-6,15.6,0c0,0,4.2,5.4,3,10.2s-13.2,4.8-18.6,0V1070.7z"/>
		<path class="st0" d="M319.9,1074.9c0,0,10.2,0.6,12,1.8"/>
		<path class="st0" d="M302.7,1086.6c0,0,8.8-3.8,19.9,0.2"/>
		<path class="st0" d="M302.5,1092.8c0,0,8.2-4.4,21.3-0.5"/>
		<path class="st0" d="M302.2,1097.8c0,0,9.4-3.9,22.7-0.5"/>
	</g>
	<g>
		<path class="st0" d="M434.5,1091.7c0,0,4.3,30.5-2.8,48.5s-21.9,19.1-42,17.7s-27.6-15.2-26.5-32.9s6.5-37.9,6.5-37.9l63.4,4.7
			L434.5,1091.7z"/>
		<path class="st1" d="M384.4,1088.7c0,0-0.6-22.9-1.2-30.7c-0.6-7.8,1.8-11.4,1.8-11.4s24.7-3.6,27.1,1.8
			c2.4,5.4-1.2,39.7-1.2,39.7L384.4,1088.7z"/>
		<path class="st1" d="M391.6,1103.7c-20.5,0.6-26.8,9-28.1,17.1c0-0.2,0-0.5,0-0.7c0-8.2,5.2-24.4,6.2-33c0.5-4.4,1.1-8.7,1.6-12.8
			c0.8-5.8,3.8-8.4,4.2-12.6l0,0c-0.6,13.2,0.4,14.9,0.4,14.9c6.6,4.8,50.5,2.4,51.1-4.8c0.6-7.2,4.2-9,4.2-9l0.1,0.1l0.6,11.6
			c0,0,1.6,7.2,2.4,17.2c1.1,12.2,1,28.6-4.4,40.5l-0.6-0.8C429.5,1131.4,431.9,1102.5,391.6,1103.7z"/>
		<path class="st0" d="M385.8,1077.1l19.9,2.8v23.9c0,0-11.1-1.3-19.3,0.3c-1.9,0.2-3.6,0.5-5.2,0.8L385.8,1077.1z"/>
		<path class="st0" d="M381.2,1104.9c1.6-0.3,3.3-0.6,5.2-0.8c1.6-0.2,3.4-0.3,5.3-0.4c40.3-1.2,37.9,27.7,37.9,27.7l0.6,0.8
			c-4.2,9.3-11.7,16-24.5,16c-37.2,0-42-7.9-42.2-27.4C364.5,1114.3,368.9,1107.6,381.2,1104.9z"/>
		<path class="st0" d="M400.7,1071.3c0,0,9.6-10.2,19.3-4.8s7.2,18.6-0.6,18.6s-19.9-4.2-19.9-4.2L400.7,1071.3z"/>
		<path class="st0" d="M400.7,1075.5c0,0,14.4-3,18.6,0"/>
		<path class="st0" d="M400.7,1071.3c0,0-7.2-1.8-12-0.6v10.2h10.8L400.7,1071.3z"/>
		<path class="st0" d="M388.6,1070.7c0,0-6.6-6-15.6,0c0,0-4.2,5.4-3,10.2c1.2,4.8,13.2,4.8,18.6,0V1070.7z"/>
		<path class="st0" d="M388,1074.9c0,0-10.2,0.6-12,1.8"/>
		<path class="st0" d="M405.2,1086.6c0,0-8.8-3.8-19.9,0.2"/>
		<path class="st0" d="M405.4,1092.8c0,0-8.2-4.4-21.3-0.5"/>
		<path class="st0" d="M405.7,1097.8c0,0-9.4-3.9-22.7-0.5"/>
	</g>
</g>
</svg>
