<?xml version="1.0" encoding="utf-8"?>
<!-- Generator: Adobe Illustrator 21.1.0, SVG Export Plug-In . SVG Version: 6.00 Build 0)  -->
<svg version="1.1" id="hair_x2F_1" xmlns="http://www.w3.org/2000/svg" xmlns:xlink="http://www.w3.org/1999/xlink" x="0px" y="0px"
	 viewBox="0 0 700 1200" style="enable-background:new 0 0 700 1200;" xml:space="preserve">
<style type="text/css">
	.st0{fill:#28A848;stroke:#1D1D1B;stroke-width:3;stroke-linecap:round;stroke-linejoin:round;stroke-miterlimit:10;}
	.st1{fill:#F6E71F;stroke:#1D1D1B;stroke-width:3;stroke-linecap:round;stroke-linejoin:round;stroke-miterlimit:10;}
	.st2{fill:#E42320;stroke:#1D1D1B;stroke-width:3;stroke-linecap:round;stroke-linejoin:round;stroke-miterlimit:10;}
	.st3{fill:#294B9A;stroke:#1D1D1B;stroke-width:3;stroke-linecap:round;stroke-linejoin:round;stroke-miterlimit:10;}
	.st4{fill:#66B22E;stroke:#1D1D1B;stroke-width:3;stroke-linecap:round;stroke-linejoin:round;stroke-miterlimit:10;}
</style>
<g>
	<g>
		<path class="st0" d="M228.2,362.4h220.5c0,0-18.3-79.5-110.3-82.1c0,0-55.5-9.4-98,59.2C236.2,346.3,232.1,353.9,228.2,362.4z"/>
		<path class="st1" d="M225.3,362.4c0,0-89.5,16.2-72.2,37.2c0,0,94.2,25.3,284.6-37.2C437.6,362.4,286.7,344,225.3,362.4z"/>
		<path class="st2" d="M308.4,290c0,0-28.3,37-25.9,64.8c0,0,21.5-0.5,38.1-0.5c0,0-3.8-60.4,11.5-74.4
			C332,279.8,317.5,277,308.4,290z"/>
		<path class="st3" d="M351.6,281.2c9.4,11.4,13.8,24.3,17.2,35.8c3.5,11.9,2.8,26.2,3.4,38.7c10.7,0.6,20.6,1.4,31.5,3.2
			c-1.7-1-4.6-34.3-10.8-48c-6.4-14.1-18.6-26.1-35.4-28.9"/>
	</g>
	<path class="st4" d="M351.5,270L351.5,270c-2.5-4-6.9-7.7-9.8-8.8c-5.7-2.1-8.2-1-12.7,2.3c-3.3,2.5-6.7,14.8-7.5,16l-0.1,0.1
		c3.2-0.4,6.3-0.5,9.2-0.6c5.3,0.3,11.3,1,15.8,0.8c5.3,0.6,8.5,1.4,8.5,1.4C355.5,273.5,351.5,270,351.5,270z"/>
</g>
</svg>
