<?xml version="1.0" encoding="utf-8"?>
<!-- Generator: Adobe Illustrator 21.1.0, SVG Export Plug-In . SVG Version: 6.00 Build 0)  -->
<svg version="1.1" id="hair_x2F_2" xmlns="http://www.w3.org/2000/svg" xmlns:xlink="http://www.w3.org/1999/xlink" x="0px" y="0px"
	 viewBox="0 0 700 1200" style="enable-background:new 0 0 700 1200;" xml:space="preserve">
<style type="text/css">
	.st0{fill:#723B10;stroke:#1D1D1B;stroke-width:3;stroke-linecap:round;stroke-linejoin:round;stroke-miterlimit:10;}
</style>
<path class="st0" d="M244.9,313c7.4,11.6,13.7,32.5,20,45.9c7.1-2.7,14.3-4.8,21.5-6.3c12.3-2.6,24.7,5.2,37.1,4.9
	c18.8-0.5,37.8-8,56.5-6.9c7,0.4,19.5,9.1,30,8.2c7.4-0.6,13.8-8.6,16.3-16.6c3.7-11.6,7.1-21.4,11.6-32.7
	c1.3-3.1,5.5-25.1,5.4-25.1c-4.3,3.6-9.5,6.7-13.5,11.3c1.3-7.5,1.7-20.9,1.1-28.8c-2.9,4.3-6.8,8.4-9,13.6
	c-1.8,4.3-2.1,9.4-4.3,13.6c-0.3-9.4,0.1-17.7-2.1-26.7c-1.4-5.9-4.3-18.5-7.2-22.5c-3.3,8.8-4.4,20.7-10.5,27
	c-2-4.4-21.2-54.4-21.7-53.8c-6.3,8.3-9.9,18.2-17,25.5c-3.1-8-8.7-11.5-12.2-19c-0.9-1.9-9.9-22.9-9.6-23.6
	c-4.8,11.2-13.9,44.1-23.5,44.8c-8.2,0.6-21.8-25.3-30.4-30c-0.8,13.4-0.2,27.3-0.6,40.8c-8.3-7.2-18.3-10.9-26.8-18.3
	c-1.2,21.6,2.7,36.2,6.3,54.7c-7.4-2.3-13.5-10.8-21.7-9c1.3,8.8,4.9,17,5.8,26.5"/>
</svg>
