<?xml version="1.0" encoding="utf-8"?>
<!-- Generator: Adobe Illustrator 21.1.0, SVG Export Plug-In . SVG Version: 6.00 Build 0)  -->
<svg version="1.1" id="mouth_x2F_6" xmlns="http://www.w3.org/2000/svg" xmlns:xlink="http://www.w3.org/1999/xlink" x="0px"
	 y="0px" viewBox="0 0 700 1200" style="enable-background:new 0 0 700 1200;" xml:space="preserve">
<style type="text/css">
	.st0{fill:#FFFFFF;stroke:#1D1D1B;stroke-width:3;stroke-linecap:round;stroke-linejoin:round;stroke-miterlimit:10;}
	.st1{fill:none;stroke:#1D1D1B;stroke-width:3;stroke-linecap:round;stroke-linejoin:round;stroke-miterlimit:10;}
</style>
<path class="st0" d="M390.7,516.7c2.3,4.6,4.6,6.8,4.6,12.5c0,5.8-0.8,12.8-5,16.9c-3.8-0.9-7.1-3.8-10.9-5.2
	c-6.5-2.4-13.2-1.8-20.1-1.8c-17.2,0-34.4,0.3-51.5,0.5c9.6-5.3,18.2-13.2,28.1-18c14.3-6.9,33.8-5.4,49.5-5.4
	C385.3,516.2,388.8,516,390.7,516.7z"/>
<path class="st1" d="M307.7,528.6c0,6.2-1.4,15.2,0.5,20.9"/>
<path class="st1" d="M323,529.6c1.5,3.1,0.9,5.6,0.9,8.9"/>
<path class="st1" d="M333.5,523.1c-0.4,6.3,0.9,10.1,0.4,16.1"/>
<path class="st1" d="M344.1,519.6c0,6.9,1.4,11.8,1.4,18.9"/>
<path class="st1" d="M354.9,517.6c1,7.4,0.9,13.4,0.9,20.9"/>
<path class="st1" d="M369.4,516.6c0,8.3,0.4,14.3,0.5,22.5"/>
<path class="st1" d="M380.9,517.1c2.4,5.4,1.1,18.2-1,23.9"/>
<path class="st1" d="M390.7,516.7c0,0-5-8.3-8.6-11.7"/>
<path class="st1" d="M390.3,546.2c0,0-5.2,6.8-8.1,8.7"/>
</svg>
