<?xml version="1.0" encoding="utf-8"?>
<!-- Generator: Adobe Illustrator 21.1.0, SVG Export Plug-In . SVG Version: 6.00 Build 0)  -->
<svg version="1.1" id="mouth_x2F_7" xmlns="http://www.w3.org/2000/svg" xmlns:xlink="http://www.w3.org/1999/xlink" x="0px"
	 y="0px" viewBox="0 0 700 1200" style="enable-background:new 0 0 700 1200;" xml:space="preserve">
<style type="text/css">
	.st0{fill:#FFFFFF;stroke:#1D1D1B;stroke-width:3;stroke-linecap:round;stroke-linejoin:round;stroke-miterlimit:10;}
	.st1{fill:none;stroke:#1D1D1B;stroke-width:3;stroke-linecap:round;stroke-linejoin:round;stroke-miterlimit:10;}
</style>
<path class="st0" d="M380.2,502.7c1.8,3.5,3.5,5.2,3.5,9.5c0,4.4-0.6,9.7-3.8,12.9c-2.9-0.7-5.4-2.9-8.3-4
	c-4.9-1.8-10.1-1.4-15.3-1.4c-13.1,0-26.1,0.2-39.2,0.4c7.3-4,13.8-10.1,21.3-13.7c10.9-5.2,25.7-4.1,37.6-4.1
	C376.1,502.3,378.7,502.1,380.2,502.7z"/>
<path class="st1" d="M317.1,511.8c0,4.7-1.1,11.5,0.4,15.9"/>
<path class="st1" d="M328.7,512.5c1.1,2.3,0.7,4.2,0.7,6.8"/>
<path class="st1" d="M336.7,507.6c-0.3,4.8,0.7,7.7,0.3,12.2"/>
<path class="st1" d="M344.7,504.9c0,5.2,1,9,1,14.4"/>
<path class="st1" d="M353,503.4c0.7,5.6,0.7,10.2,0.7,15.9"/>
<path class="st1" d="M364,502.6c0,6.3,0.3,10.9,0.3,17.1"/>
<path class="st1" d="M372.7,503c1.8,4.1,0.8,13.8-0.8,18.2"/>
<path class="st1" d="M380.2,502.7c0,0-3.8-6.3-6.5-8.9"/>
<path class="st1" d="M379.8,525.1c0,0-4,5.2-6.2,6.6"/>
</svg>
