<?xml version="1.0" encoding="utf-8"?>
<!-- Generator: Adobe Illustrator 21.1.0, SVG Export Plug-In . SVG Version: 6.00 Build 0)  -->
<svg version="1.1" id="mouth_x2F_8" xmlns="http://www.w3.org/2000/svg" xmlns:xlink="http://www.w3.org/1999/xlink" x="0px"
	 y="0px" viewBox="0 0 700 1200" style="enable-background:new 0 0 700 1200;" xml:space="preserve">
<style type="text/css">
	.st0{fill:#E42320;stroke:#1D1D1B;stroke-width:3;stroke-linecap:round;stroke-linejoin:round;stroke-miterlimit:10;}
	.st1{fill:none;stroke:#1D1D1B;stroke-width:3;stroke-linecap:round;stroke-linejoin:round;stroke-miterlimit:10;}
</style>
<path class="st0" d="M287.3,521.7c6.4-9.9,26.3-25.1,39.1-21.8c6,1.6,11.7,7.6,18.2,9.7c6.9,2.2,8.5-0.6,13.3-4.3
	c10.6-8.1,25.9-9.4,37-1.7c6.2,4.3,16.9,17.4,24.6,17.5c-5.9,5-11.9,8.9-19.5,12c-10.5,4.2-20,11.5-30.7,15.5
	c-12.4,4.6-32.1,3.1-44.7-0.8c-11.5-3.6-27.8-7.6-37.4-14c-2.8-1.9-4.7-3.8-6.5-6.8c2.2-2.4,7.3-6.8,10.2-8.3"/>
<path class="st1" d="M280.5,527.8c25.5,0,51,0,76.5,0c9,0,18.6,1,27.5-0.2c5.7-0.7,10.9-3.4,16.3-4.2c5.6-0.9,12,1.1,17.2-0.9"/>
</svg>
