<?xml version="1.0" encoding="utf-8"?>
<!-- Generator: Adobe Illustrator 21.1.0, SVG Export Plug-In . SVG Version: 6.00 Build 0)  -->
<svg version="1.1" id="mouth_x2F_9" xmlns="http://www.w3.org/2000/svg" xmlns:xlink="http://www.w3.org/1999/xlink" x="0px"
	 y="0px" viewBox="0 0 700 1200" style="enable-background:new 0 0 700 1200;" xml:space="preserve">
<style type="text/css">
	.st0{fill:#E42320;stroke:#1D1D1B;stroke-width:3;stroke-linecap:round;stroke-linejoin:round;stroke-miterlimit:10;}
	.st1{fill:none;stroke:#1D1D1B;stroke-width:3;stroke-linecap:round;stroke-linejoin:round;stroke-miterlimit:10;}
</style>
<path class="st0" d="M323.7,505.9c3.2-4.9,13.2-12.6,19.6-10.9c3,0.8,5.9,3.8,9.1,4.8c3.4,1.1,4.2-0.3,6.6-2.1
	c5.3-4,13-4.7,18.5-0.8c3.1,2.1,8.4,8.7,12.3,8.7c-2.9,2.5-5.9,4.5-9.8,6c-5.3,2.1-10,5.8-15.3,7.8c-6.2,2.3-16.1,1.5-22.4-0.4
	c-5.8-1.8-13.9-3.8-18.7-7c-1.4-0.9-2.4-1.9-3.3-3.4c1.1-1.2,3.7-3.4,5.1-4.1"/>
<path class="st1" d="M320.3,508.9c12.8,0,25.5,0,38.3,0c4.5,0,9.3,0.5,13.8-0.1c2.8-0.4,5.4-1.7,8.2-2.1c2.8-0.4,6,0.5,8.6-0.4"/>
</svg>
