<?xml version="1.0" encoding="utf-8"?>
<!-- Generator: Adobe Illustrator 21.1.0, SVG Export Plug-In . SVG Version: 6.00 Build 0)  -->
<svg version="1.1" id="hair_x2F_4" xmlns="http://www.w3.org/2000/svg" xmlns:xlink="http://www.w3.org/1999/xlink" x="0px" y="0px"
	 viewBox="0 0 700 1200" style="enable-background:new 0 0 700 1200;" xml:space="preserve">
<style type="text/css">
	.st0{fill:#AA3517;stroke:#1D1D1B;stroke-width:3;stroke-miterlimit:10;}
</style>
<path class="st0" d="M217.6,382.6c0,0-52-17.6-9.8-63.3c0,0-23.6-60.2,35.8-44c0,0,6.5-65.1,35.8-31.7c0,0,19.5-52.5,39-9.5
	c0,0,27.6-71.5,74.8-16.9c1.1,1.2,35.8-5.9,40.9-4.8c10.2,2.2,18.7,6.7,24.1,16.8c7.7,14.4-3.7,35,3.6,45.9
	c-1.1-1.7,21.6-4.1,24.2-3.4c8,2,16.4,7.2,20.2,15.4c9.5,20.1-7.1,32.1-21,41c32.7-6.2,27.8,55.6-3.7,56.3
	c18.1,2.8,14.7,38,3.5,47.3c-16.4,13.7-35.6-8.3-50.8-15.8c-0.2-2.1-0.4-4.2-0.6-6.3c-9.9,39.7-34.5,51.7-69.7,48.8
	c-25.5-2.1-28.5-15.7-44.1-34.3c-11.9,14.5-15,32.8-33.9,41.4c-10.6,4.8-18.2,4-28.5-1.1c-15.2-7.4-21.3-20.1-17.3-37.5
	c-13,12-23.4,9-32-4c0.8-16.1-2.8-29.4,12.7-38.4"/>
</svg>
