<?xml version="1.0" encoding="utf-8"?>
<!-- Generator: Adobe Illustrator 21.1.0, SVG Export Plug-In . SVG Version: 6.00 Build 0)  -->
<svg version="1.1" id="hair_x2F_6" xmlns="http://www.w3.org/2000/svg" xmlns:xlink="http://www.w3.org/1999/xlink" x="0px" y="0px"
	 viewBox="0 0 700 1200" style="enable-background:new 0 0 700 1200;" xml:space="preserve">
<style type="text/css">
	.st0{fill:#861811;stroke:#1D1D1B;stroke-width:3;stroke-linecap:round;stroke-linejoin:round;stroke-miterlimit:10;}
	.st1{fill:#66B22E;stroke:#1D1D1B;stroke-width:3;stroke-linecap:round;stroke-linejoin:round;stroke-miterlimit:10;}
	.st2{fill:none;stroke:#1D1D1B;stroke-width:3;stroke-linecap:round;stroke-linejoin:round;stroke-miterlimit:10;}
</style>
<g>
	<g>
		<path class="st0" d="M326,364.3c0,0,16.8-7,36.1-3.1c-2.9-27.3-5.5-134.6-7.7-162c-2.5-30.4-1.7-57.5-2.7-88.1
			c-19.4-4.9-19,15.3-19.3,35c-0.2,17.5,0.3,35.1,0.2,52.7C332.4,221.3,336.5,344.7,326,364.3z"/>
		<path class="st1" d="M481,49.4c0,0-110.2-26.1-129.3,61.7C351.7,111.1,447.6,162.4,481,49.4z"/>
		<line class="st2" x1="481" y1="49.4" x2="351.7" y2="111.1"/>
		<path class="st1" d="M332.5,172.2c0,0-88.6-74.8-127.7,0C204.8,172.2,276.4,246.4,332.5,172.2z"/>
		<line class="st2" x1="204.8" y1="172.2" x2="326" y2="172"/>
		<path class="st1" d="M354.4,199.1c0,0,82.9-101.6,126.6-1.9C481,197.2,419.7,287.5,354.4,199.1z"/>
		<line class="st2" x1="354.4" y1="199.1" x2="481" y2="197.2"/>
	</g>
</g>
</svg>
