<?xml version="1.0" encoding="utf-8"?>
<!-- Generator: Adobe Illustrator 21.1.0, SVG Export Plug-In . SVG Version: 6.00 Build 0)  -->
<svg version="1.1" id="torso_x2F_8" xmlns="http://www.w3.org/2000/svg" xmlns:xlink="http://www.w3.org/1999/xlink" x="0px"
	 y="0px" viewBox="0 0 700 1200" style="enable-background:new 0 0 700 1200;" xml:space="preserve">
<style type="text/css">
	.st0{fill:#008237;stroke:#1D1D1B;stroke-width:3;stroke-linecap:round;stroke-linejoin:round;stroke-miterlimit:10;}
	.st1{fill:none;stroke:#1D1D1B;stroke-width:3;stroke-linecap:round;stroke-linejoin:round;stroke-miterlimit:10;}
</style>
<g>
	<path class="st0" d="M521.3,627.4c-69.8,0-109.2,38.2-109.2,38.2c-0.3-0.7-0.6-1.5-0.9-2.1c-1.8-3.4-4.8-6.1-8.3-7.8
		c-6.9-3.2-22.2-7.9-52.9-7.9s-46,4.8-52.9,7.9c-3.5,1.6-6.5,4.3-8.3,7.8c-0.4,0.7-0.7,1.4-0.9,2.1c0,0-39.4-38.2-109.2-38.2
		c-69,0-99,30.7-128.5,55.5c0,0,44.6,64.7,123.8,63.8c81.2-0.9,113.1-36.2,113.1-36.2v129.7h63h63V710.5c0,0,31.9,35.3,113.1,36.2
		c79.2,0.9,123.8-63.8,123.8-63.8C620.3,658.2,590.3,627.4,521.3,627.4z"/>
	<line class="st1" x1="50.2" y1="683" x2="287" y2="683"/>
	<line class="st1" x1="413" y1="683" x2="649.8" y2="683"/>
	<polyline class="st0" points="371.4,658.3 369.4,572.5 330.6,572.5 328.6,658.3 	"/>
</g>
</svg>
