<?xml version="1.0" encoding="utf-8"?>
<!-- Generator: Adobe Illustrator 21.1.0, SVG Export Plug-In . SVG Version: 6.00 Build 0)  -->
<svg version="1.1" id="torso_x2F_1" xmlns="http://www.w3.org/2000/svg" xmlns:xlink="http://www.w3.org/1999/xlink" x="0px"
	 y="0px" viewBox="0 0 700 1200" style="enable-background:new 0 0 700 1200;" xml:space="preserve">
<style type="text/css">
	.st0{fill:#FCD4A3;stroke:#1D1D1B;stroke-width:3;stroke-linecap:round;stroke-linejoin:round;stroke-miterlimit:10;}
</style>
<g>
	<path class="st0" d="M502.2,744c-8.5-7.8-37.3-29.6-65.7-62.7c-28.4-33.1-50.4-30.6-50.4-30.6l0,0c-8.6-1.7-20.3-2.9-36.1-2.9
		c-15.8,0-27.5,1.3-36.1,2.9l0,0c0,0-22-2.5-50.4,30.6c-28.4,33.1-57.1,54.9-65.7,62.7s-75.9,51.5-85.5,60l16,20.3
		c0,0,67.4-36.4,80.5-46.3c13.1-9.9,56.5-54.7,78.2-58.6v120.9H413V719.4c21.7,3.9,65,48.8,78.2,58.6c13.1,9.9,80.5,46.3,80.5,46.3
		l16-20.3C578.1,795.5,510.7,751.9,502.2,744z"/>
	<path class="st0" d="M148.9,813.1c0,0-11.1,6.8-20.5,11.2c-9.5,4.5-23.7,25-29.1,32.5c-5.4,7.5-16.6,24.1-21.4,21.4
		s-2.7-8.6-0.5-11.8S88,852.5,88,852.5s-20.9,20.4-26.8,17.7s-4.3-9.1,0.5-12.3s20.4-15.5,20.4-15.5s-19.8,10.2-22.5,11.8
		c-2.7,1.6-11.3,7-13.4,2.1c-2.1-4.8,0.5-8.6,4.3-10.7c3.8-2.1,25.2-13.4,25.2-13.4s-25.2,13.4-31.1,7.5s0.5-10.2,5.9-11.8
		c5.4-1.6,25.7-10.7,25.7-10.7c-8-1.1-20.4-2.7-17.1-9.1c3.2-6.4,29.5,0,37,0s16.3-4,16.3-4l15.7-11.5"/>
	<path class="st0" d="M551.1,813.1c0,0,11.1,6.8,20.5,11.2c9.5,4.5,23.7,25,29.1,32.5c5.4,7.5,16.6,24.1,21.4,21.4
		c4.8-2.7,2.7-8.6,0.5-11.8S612,852.5,612,852.5s20.9,20.4,26.8,17.7s4.3-9.1-0.5-12.3s-20.4-15.5-20.4-15.5s19.8,10.2,22.5,11.8
		c2.7,1.6,11.3,7,13.4,2.1c2.1-4.8-0.5-8.6-4.3-10.7c-3.8-2.1-25.2-13.4-25.2-13.4s25.2,13.4,31.1,7.5c5.9-5.9-0.5-10.2-5.9-11.8
		c-5.4-1.6-25.7-10.7-25.7-10.7c8-1.1,20.4-2.7,17.1-9.1s-29.5,0-37,0c-7.5,0-16.3-4-16.3-4L572,792.5"/>
	<polyline class="st0" points="371.4,657.5 369.4,571.7 330.6,571.7 328.6,657.5 	"/>
</g>
</svg>
