<?xml version="1.0" encoding="utf-8"?>
<!-- Generator: Adobe Illustrator 21.1.0, SVG Export Plug-In . SVG Version: 6.00 Build 0)  -->
<svg version="1.1" id="torso_x2F_2" xmlns="http://www.w3.org/2000/svg" xmlns:xlink="http://www.w3.org/1999/xlink" x="0px"
	 y="0px" viewBox="0 0 700 1200" style="enable-background:new 0 0 700 1200;" xml:space="preserve">
<style type="text/css">
	.st0{fill:#FCD4A3;stroke:#1D1D1B;stroke-width:3;stroke-linecap:round;stroke-linejoin:round;stroke-miterlimit:10;}
</style>
<g>
	<path class="st0" d="M407.6,658.3l148.8,117.1l-21.7,35L413,719.2V840H287.1V719.2l-121.8,91.3l-21.7-35l148.8-117.1
		c0,0,11.6-10.8,57.6-10.8S407.6,658.3,407.6,658.3z"/>
	<path class="st0" d="M149.7,770.7c0,0-7.7,5-10.9,6.6c-3.2,1.6-25,2.7-25,2.7s-8,0-6.9,6.9c1.1,6.9,14.4,5.3,14.4,5.3l-30.4,16
		c0,0-6.4,2.1-8,6.9s4.8,8,11.2,4.8s17.6-6.9,17.6-6.9l-17,14.9c0,0-5.9,5.3-2.1,10.7c3.7,5.3,12.2-2.7,30.9-19.2l-14.4,20.2
		c0,0-4.3,7.5,2.1,8.5c6.4,1.1,16-11.7,23.4-20.2l-3.8,13.9c0,0-2.7,6.9-0.5,9.1c2.1,2.1,9.1,3.2,14.4-7.5
		c5.3-10.7,24-35.1,37.8-45.8"/>
	<path class="st0" d="M550.3,770.7c0,0,7.7,5,10.9,6.6c3.2,1.6,25,2.7,25,2.7s8,0,6.9,6.9c-1.1,6.9-14.4,5.3-14.4,5.3l30.4,16
		c0,0,6.4,2.1,8,6.9c1.6,4.8-4.8,8-11.2,4.8c-6.4-3.2-17.6-6.9-17.6-6.9l17,14.9c0,0,5.9,5.3,2.1,10.7c-3.7,5.3-12.2-2.7-30.9-19.2
		l14.4,20.2c0,0,4.3,7.5-2.1,8.5c-6.4,1.1-16-11.7-23.4-20.2l3.8,13.9c0,0,2.7,6.9,0.5,9.1c-2.1,2.1-9.1,3.2-14.4-7.5
		c-5.3-10.7-24-35.1-37.8-45.8"/>
	<path class="st0" d="M121.3,792.2c0,0,6.7,0.6,9.3,3.2c2.6,2.6,10,7.4,17.9,6.1"/>
	<path class="st0" d="M578.7,792.2c0,0-3.4-0.3-7.3,1.5c-3.9,1.7-11.3,9.2-19.6,8.7"/>
	<path class="st0" d="M112.7,807.6c0,0,10.5,11.4,18.9,15.1s11.8,3.4,11.8,3.4"/>
	<path class="st0" d="M589.4,808c0,0-13.9,15.1-31.6,18.9"/>
	<polyline class="st0" points="371.4,657.3 369.4,571.5 330.6,571.5 328.6,657.3 	"/>
</g>
</svg>
