<?xml version="1.0" encoding="utf-8"?>
<!-- Generator: Adobe Illustrator 21.1.0, SVG Export Plug-In . SVG Version: 6.00 Build 0)  -->
<svg version="1.1" id="torso_x2F_3" xmlns="http://www.w3.org/2000/svg" xmlns:xlink="http://www.w3.org/1999/xlink" x="0px"
	 y="0px" viewBox="0 0 700 1200" style="enable-background:new 0 0 700 1200;" xml:space="preserve">
<style type="text/css">
	.st0{fill:#FCD4A3;stroke:#000000;stroke-width:3;stroke-linecap:round;stroke-linejoin:round;stroke-miterlimit:10;}
</style>
<g>
	<path class="st0" d="M407.7,658.6l148.8,117.1l-21.7,35L413,719.4v120.9H287.1V719.4l-121.8,91.3l-21.7-35l148.8-117.1
		c0,0,11.6-10.8,57.6-10.8S407.7,658.6,407.7,658.6z"/>
	<path class="st0" d="M149.8,770.9c0,0-5.7,4.1-13,9.1l-15-7.8c-3.5-1.8-7.7-0.5-9.5,2.9l0,0c-1.9,3.5-0.6,7.8,2.9,9.7l7,4.2
		c-0.5,0.4-1.1,0.7-1.6,1.1c-12.3,8.2-26,19.2-16.5,36.5c9.5,17.3,35.4,8.6,45.6,0c10.2-8.6,15.1-15.5,26.3-23.9"/>
	<path class="st0" d="M550.2,770.9c0,0,5.7,4.1,13,9.1l15-7.8c3.5-1.8,7.7-0.5,9.5,2.9l0,0c1.9,3.5,0.6,7.8-2.9,9.7l-7,4.2
		c0.5,0.4,1.1,0.7,1.6,1.1c12.3,8.2,26,19.2,16.5,36.5c-9.5,17.3-35.4,8.6-45.6,0c-10.2-8.6-15.1-15.5-26.3-23.9"/>
	<polyline class="st0" points="371.5,657.5 369.5,571.7 330.7,571.7 328.7,657.5 	"/>
</g>
</svg>
