<?xml version="1.0" encoding="utf-8"?>
<!-- Generator: Adobe Illustrator 21.1.0, SVG Export Plug-In . SVG Version: 6.00 Build 0)  -->
<svg version="1.1" id="torso_x2F_4" xmlns="http://www.w3.org/2000/svg" xmlns:xlink="http://www.w3.org/1999/xlink" x="0px"
	 y="0px" viewBox="0 0 700 1200" style="enable-background:new 0 0 700 1200;" xml:space="preserve">
<style type="text/css">
	.st0{fill:#FCD4A3;stroke:#1D1D1B;stroke-width:3;stroke-linecap:round;stroke-linejoin:round;stroke-miterlimit:10;}
</style>
<g class="torso4" *ngIf="randomTorsoindex === 4">
	<path class="st0" d="M407.6,658.6l148.8,117.1l-21.7,35l-121.8-91.3v120.9H287V719.4l-121.8,91.3l-21.7-35l148.8-117.1
		c0,0,11.6-10.8,57.6-10.8S407.6,658.6,407.6,658.6z"/>
	<path class="st0" d="M154.6,767l-11.1,8.7c0,0-28.6,14.6-21.1,33.3c7.6,18.7,29.5,11.7,42.8,1.7c13.3-10,28.3-21.2,28.3-21.2"/>
	<path class="st0" d="M545.4,767l11.1,8.7c0,0,28.6,14.6,21.1,33.3s-29.5,11.7-42.8,1.7c-13.3-10-28.3-21.2-28.3-21.2"/>
	<polyline class="st0" points="371.4,657.5 369.4,571.7 330.6,571.7 328.6,657.5 	"/>
</g>
</svg>
